<svg xmlns="http://www.w3.org/2000/svg" width="800" height="800" viewBox="0 0 211.667 211.667"><path fill="#3a3a3a" d="M183.83 194.502c-7.81-1.424-9.448-3.002-15.088-14.54-8.778-17.959-8.32-21.264 3.894-28.053 6.783-3.772 11.336-8.351 13.537-13.618 4.175-9.99 6.51-10.001 10.273-.052 2.811 7.432 10.703 48.119 10.733 55.332.013 3.522-7.487 3.821-23.349.93zM42.535 155.71c3.975-13.006 4.023-12.86-2.65-8.142-9.113 6.443-15.72-1.005-12.91-14.552.608-2.928 1.64-7.88 2.293-11.006 1.228-5.874-11.461-6.16-26.497-.6-4.106 1.52-3.269-.529 5.354-13.1 5.788-8.438 10.221-17.386 10.221-20.63 0-3.15 1.803-8.86 4.006-12.69 3.465-6.023 3.83-9.201 2.703-23.581-1.934-24.69 2.592-33.692 19.09-37.976 6.69-1.738 13.698-3.77 15.572-4.518 2.134-.85 3.407.082 3.407 2.498 0 2.358 3.462 5.048 8.917 6.925 8.592 2.958 14.287 8.671 20.344 20.41 9.646 18.695 34.148 36.708 48.917 35.962 14.772-.746 15.07 1.37 3.79 26.966-12.573 28.533-17.78 32.67-41.12 32.67-17.18 0-23.326 2.93-23.326 11.12 0 5.292-19.037 16.694-31.146 18.655-10.032 1.624-10.032 1.624-6.965-8.411zm135.747-66.517c-16.39-5.422-23.852-14.623-18.981-23.409 2.205-3.98 36.853-20.483 43.193-20.574 3.735-.054 9.842 42.506 6.512 45.387-3.878 3.356-18.33 2.695-30.724-1.404z"/></svg>