<svg xmlns="http://www.w3.org/2000/svg" width="800" height="800" viewBox="0 0 211.667 211.667"><path d="M146.823 197.833c-5.523-1.9-13.806-10.281-18.408-18.626-6.622-12.007-10.384-14.666-18.016-12.73-8.116 2.056-10.782-.177-16.808-14.082-6.201-14.311-8.565-16.157-17.623-13.766-8.6 2.27-11.968.029-18.932-12.6-8.471-15.36-8.471-15.36-20.74-3.38-17.015 16.61-24.58 16.52-33.915-.41-14.347-26.013 25.375-67.747 61.837-64.968 11.17.85 14.962-.784 20.064-8.65 7.545-11.633 30.019-16.443 71.436-15.294 31.043.862 67.553 43.039 51.705 59.73-3.69 3.887-7.565 14.495-8.612 23.574-1.473 12.778-5.028 18.232-15.736 24.137-13.026 7.184-13.395 8.422-6.323 21.245 9.502 17.228-11.368 42.205-29.93 35.82z" fill="#3a3a3a"/></svg>