<?xml version="1.0" encoding="UTF-8" standalone="no"?>
<!-- Created with Inkscape (http://www.inkscape.org/) -->

<svg
   width="200mm"
   height="200mm"
   viewBox="0 0 200 200"
   version="1.1"
   id="svg1"
   xml:space="preserve"
   sodipodi:docname="Guignenec.svg"
   inkscape:version="1.3.2 (091e20e, 2023-11-25)"
   xmlns:inkscape="http://www.inkscape.org/namespaces/inkscape"
   xmlns:sodipodi="http://sodipodi.sourceforge.net/DTD/sodipodi-0.dtd"
   xmlns="http://www.w3.org/2000/svg"
   xmlns:svg="http://www.w3.org/2000/svg"><sodipodi:namedview
     id="namedview1"
     pagecolor="#ffffff"
     bordercolor="#000000"
     borderopacity="0.25"
     inkscape:showpageshadow="2"
     inkscape:pageopacity="0.0"
     inkscape:pagecheckerboard="0"
     inkscape:deskcolor="#d1d1d1"
     inkscape:document-units="mm"
     inkscape:zoom="0.7518436"
     inkscape:cx="535.3507"
     inkscape:cy="403.67438"
     inkscape:window-width="1472"
     inkscape:window-height="806"
     inkscape:window-x="0"
     inkscape:window-y="37"
     inkscape:window-maximized="0"
     inkscape:current-layer="layer1" /><defs
     id="defs1" /><g
     inkscape:label="Calque 1"
     inkscape:groupmode="layer"
     id="layer1"><path
       style="fill:#3a3a3a;fill-opacity:1;stroke-width:0.346156"
       d="M 41.731005,7.4415558 C 40.172588,20.846503 37.083554,37.946743 33.549312,40.168326 21.044213,48.02889 2.6209892,77.148435 7.1413581,86.180914 c 2.8131655,5.62119 21.6088609,2.553866 29.9874449,5.123 0.926459,0.284086 1.358571,0.318389 1.534066,1.534067 1.409917,9.920019 0.766059,19.957259 -3.253566,25.702709 -0.795005,1.13634 -4.134808,1.33393 -5.022694,3.74945 -0.404879,1.10147 -0.01698,3.4201 3.674058,4.80869 5.080861,2.8453 10.129211,4.79484 14.858957,5.26175 3.496379,-0.31661 5.014309,-8.66654 6.106634,-11.90939 2.546444,-4.84095 5.528822,-12.8331 10.227116,-8.69304 13.826704,12.18389 26.933192,32.36849 18.40881,48.57881 -2.866491,6.33843 5.961912,31.59222 24.545086,36.30627 2.06035,0.52267 5.21452,1.54716 10.73848,0.51135 1.59474,-0.81999 4.72759,-4.86594 7.15897,-12.78389 0.94601,-3.08073 -1.00343,-11.88145 0,-13.29526 3.26053,-7.99982 8.10333,-15.05734 14.82932,-20.45424 3.15954,-2.4883 3.47871,-2.86648 6.13627,-8.18169 1.78665,-3.57319 -0.75803,-13.00529 1.534,-14.31797 1.29957,-0.64978 4.69876,0 6.13627,0 6.25539,0 12.59415,0.28045 18.40881,-2.04542 2.69754,-1.07901 6.40261,-6.40565 8.1817,-8.69305 5.28176,-5.847 9.64957,-12.47138 11.76119,-19.942876 2.76481,-9.782728 3.69312,-15.317622 1.53407,-17.386093 -0.71594,-0.68588 -1.36346,-1.741683 -2.55679,-2.556784 -0.17322,-0.11827 -7.05279,-10.19067 -10.22712,-12.783903 -3.7252,-4.320537 -2.29337,-6.286725 -0.51135,-17.386093 0.84153,-5.241519 -7.56049,-8.88489 -12.27254,-11.249823 -2.44343,-1.226328 -4.48859,-5.246137 -7.15898,-6.13627 -9.41669,-1.176651 -17.42662,-1.91201 -27.10187,-0.511364 -6.90493,0.697144 -2.46695,4.103816 -8.69305,4.602202 -11.15571,0.892984 -9.30217,-2.274843 -10.2271,-8.181688 C 115.10613,20.92398 95.71601,17.747753 91.332452,20.736814 87.628408,28.415276 77.070338,23.014627 74.457714,20.22545 68.355013,13.306028 65.252084,9.6581613 58.323711,3.9828537 56.78263,3.2123125 44.301963,-0.2718178 41.731005,7.4415558 Z"
       id="path1"
       sodipodi:nodetypes="cssssssscsssscssssssssssscsssssssssc"
       inkscape:label="path1" /><rect
       style="display:none;fill:#d40000;stroke-width:0.264583"
       id="rect1"
       width="184.49535"
       height="181.18767"
       x="14.333304"
       y="76.811806" /></g></svg>
