<svg xmlns="http://www.w3.org/2000/svg" width="800" height="800" viewBox="0 0 211.667 211.667"><path d="M146.696 197.207c-7.058 5.357-10.097 6.388-15.693 5.322-7.24-1.38-12.866-4.109-12.866-6.24.001-2.442-1.104-3.02-2.709-1.415-3.575 3.576-6.01-2.038-4.5-10.372 1.777-9.79-1.808-13.654-13.226-14.26-13.695-.728-17.078-6.852-12.345-22.347 3.35-10.971 2.332-13.04-10.688-21.704-11.489-7.647-25.408-2.011-22.182 8.981 1.773 6.041.329 18.513-2.376 20.53-8.829 6.584-31.662-13.206-25.549-22.144 2.245-3.28 2.22-3.395-1.582-7.197-4.452-4.452-4.421-5.596.276-10.293 2.855-2.855 3.206-3.76 2.088-5.378C16.305 97.593 8.187 87.576 3.386 83.595c-6.864-5.693-7.736-5.021 9.983-7.69 13.067-1.966 15.296-1.95 19.186.15 20.866 11.26 35.703 8.177 55.349-11.501 14.48-14.504 15.956-16.716 13.073-19.598-4.172-4.173.07-14.319 4.573-10.937 1.14.855 2.773 1.245 3.627.864 2.49-1.108 10.581 7.603 11.824 12.73.554 2.288 1.64 4.793 2.412 5.568.771.774 2.809 4.245 4.528 7.71 4.784 9.646 12.707 11.649 22.118 5.59 3.777-2.43 6.24-1.917 4.506.94-1.88 3.096.264 8.147 6.151 14.494 5.225 5.633 5.143 5.595 14.9 6.75 2.065.243 4.974 1.183 6.463 2.089 1.494.907 5 1.296 7.814.866 7.278-1.111 15.298 6.567 15.857 15.182.23 3.52 1.18 6.228 2.73 7.78 4.36 4.358 4.603 17.487.31 16.68-12.03-2.262-32.62-2.02-34.235.403-1.017 1.526-2.13 3.055-2.47 3.396-.342.342.649 2.369 2.202 4.505 8.509 11.703 8.168 17.92-1.708 31.112-4.987 6.66-20.054 22.104-25.884 26.53z" fill="#3a3a3a"/></svg>