<svg xmlns="http://www.w3.org/2000/svg" width="800" height="800" viewBox="0 0 211.667 211.667"><path d="M-.021 116.812c-.69-7.15-1.165-6.434 5.392-8.131 6.012-1.557 6.012-1.557 8.927-7.746 3.866-8.21 9.696-12.435 15.8-11.45 9.058 1.46 13.845-.606 19.909-8.586 2.99-3.936 6.33-7.774 7.423-8.53 1.094-.756 3.262-2.614 4.82-4.13 2.782-2.708 12.608-1.339 13.626 1.899.637 2.026 14.48 3.82 21.22 2.748a420.41 420.41 0 017.19-1.06c2.864-.393 4.859-1.373 7.585-3.722 7.019-6.047 23.098-3.4 25.517 4.203 1.194 3.753 14.266 11.834 16.55 10.23 1.375-.965 3.55-.144 11.275 4.254 11.259 6.41 13.477 5.982 15.33-2.96 1.008-4.859 1.008-4.859 11.105-8.209 5.554-1.844 12.626-4.424 15.718-5.736 5.619-2.382 5.619-2.382 4.727 3-.712 4.283-1.36 5.527-3.183 6.1-1.603.505-2.133 1.227-1.762 2.405.83 2.637-2.022 6.82-4.508 6.617-3.436-.282-4.236.248-4.09 2.706.129 2.198-4.942 7.618-10.876 11.627-2.17 1.466-4.901 8.186-6.401 15.749-3.535 17.826-21.146 29.65-31.82 21.364-5.522-4.286-10.366-6.04-13.815-5.003-4.623 1.39-12.59-2.359-13.336-6.276-.566-2.97-1.295-3.775-5.342-5.908-7.455-3.928-8.372-3.898-18.289.593-10.588 4.796-17.086 5.282-21.071 1.576-1.295-1.204-4.736-2.714-7.646-3.355-2.91-.642-7.08-2.106-9.268-3.253-7.335-3.845-24.146 2.104-29.395 10.404-3.843 6.077-11.851 6.414-15.362.644-4.495-7.387-6.65-9.06-11.589-8.991-2.223.03-4.07-.207-4.106-.526a291.65 291.65 0 01-.255-2.547z" fill="#3a3a3a"/></svg>