<svg xmlns="http://www.w3.org/2000/svg" width="1000" height="400" viewBox="0 0 264.583 105.833">
   <g transform="translate(21.989 -159.467)">
      <path d="M124.2 183.892l-2.22.366 2.22-.366zm-7.28 13.868zm-2.083.322zm28.414 20.167c-.294.084-.684.305-1.107.608.423-.303.814-.524 1.108-.608zm-44.843 4.34zm38.596 1.663c-.21.062-.437.122-.685.182-3.252.854-8.323 2.342-12.846 2.557l-.085.056.085-.055c4.523-.216 9.594-1.703 12.846-2.557.248-.06.476-.121.685-.183zm13.477 8.04zm6.231 2.582c-.3.075-.7.094-1.137.04.437.054.836.035 1.137-.04zm-118.742.253c-.111.013-.133.258-.133.743 0 .684-.512 1.086-1.383 1.086-1.343 0-1.35-.038-.222-1.285l-.016-.002-.04.045c-.153.045-.325.055-.463.07-1.856.213 1.857-.243-.679.07-.053.016-.111.023-.16.05-.012.008.05.017.037.02-.156.031-.314-.063-.47-.021-2.597.379-4.624 1.3-6.031 2.692.325.124.438.673.438 1.837 0 1.64-.319 2.236-1.335 2.502-1.003.262-1.242.107-.963-.62.148-.385.273-.992.333-1.54-.516 1.117-.788 2.402-.8 3.842.002.125-.011.246-.003.371.005.027.016.073.026.115l-.051.09c-.055.122-.118.238-.178.356.165.01.352.047.563.112.794.244 1.498.486 1.564.537.066.052-.045 1.316-.245 2.81-.312 2.72-1.162 2.146-1.852 1.067v.218l.028.071a.542.542 0 00-.028.137v.974h-.003v.06c.001.515-.004 1.03-.006 1.545.014.635.057 1.27-.032 1.902-.09-.005-.156-.006-.237-.009.35.014.764.04 1.314.079l2.868.204.108 5.395c.017.874.05 1.648.1 2.353h177.916c1.063-1.354 1.873-2.7 2.348-3.965.648-1.728 1.394-3.292 1.657-3.478.263-.185.764-2.64 1.113-5.454.498-4.005.454-5.328-.198-6.084-1.27-1.473-1.79-4.341-.845-4.678.44-.158.58-.524.31-.814-.272-.29-.796-.224-1.165.145-.466.467-1.49.382-3.36-.28-2.399-.848-4.732-.82-21.63.25-10.419.66-21.55 1.2-24.737 1.2-19.404.14-36.98.014-57.429.32H85.016c-23.585 0-44.418-1.972-46.377-4.39-.358-.443-.558-.662-.67-.649zm115.748.14zM33.451 237.06c.137.005.25.042.322.114.705.705-.124 1.659-.98 1.127-.647-.402-.677-.662-.119-1.007.26-.16.55-.242.777-.234zm121.01 1.67l.034.029c-.01-.009-.022-.02-.034-.028zM24.927 254.972l-.018.002zm-.1.012a.995.995 0 00-.077.013c.023-.005.05-.009.077-.013z" fill="#0185c6"/>
      <path d="M61.485 211.27c-.3 0-1.709 1.806-3.13 4.013-4.37 6.786-9.63 14.148-10.505 14.702-.457.29-2.926.533-5.487.538-4.4.009-4.655-.07-4.664-1.435-.004-.795-.174-2.167-.376-3.05-.289-1.259-.22-1.397.32-.642.594.832.689.81.697-.16.006-.69-.474-1.124-1.242-1.124-1.56 0-7.095-3.672-7.095-4.707 0-.42-.604-1.14-1.343-1.602-1.709-1.067-10.215-1.84-10.215-.928 0 .36-.845.824-1.877 1.03-3.627.726-5.569 4.339-7.19 13.382-.613 3.417-1.04 4.37-2.111 4.699-.897.275-1.064.526-.502.756 2.755 1.128 7.014 7.75 9.792 15.228 1.138 3.066 1.345 4.692 1.094 8.612-.07 1.094-.125 1.934-.205 2.622h10.25c.352-.547.29-.914-.148-1.352-.416-.415-.756-1.614-.756-2.663 0-1.05-.496-2.456-1.102-3.126-.907-1.001-.986-1.172.705-1.081.09-.633.046-1.267.032-1.902.002-.515.008-1.03.006-1.545v-.81c-.002-.148-.007-.254.032-.36a13.026 13.026 0 01-.252-.665c-1.02-2.925-.977-4.221.177-4.153l.016.002c.06-.118.123-.235.178-.356l.051-.09c-.01-.043-.021-.088-.026-.115-.008-.126.005-.247.003-.372.04-4.821 2.976-7.928 8.359-8.713.155-.042.313.053.469.021.013-.003-.048-.012-.037-.019.049-.028.107-.034.16-.051 1.232-.152-.36.03.63-.047.018-.001.031-.02.05-.022.115-.019.232-.023.347-.042.026-.004.075-.019.115-.029l.04-.044c.945-1.044 1.978-1.284 5.52-1.284h.006l.034-.005c.075-.013.145-.041.218-.06.374-.065-.196.025.369-.026.052-.005.096-.043.148-.053.221-.04.226-.033.418-.037.202.018.088-.004.336.092.037.015.061.028.087.041 1.674-.095 2.974-.33 3.144-.605.222-.36.675-.485 1.006-.28.917.566 1.926-.721 6.308-8.057 2.215-3.708 5-8.163 6.19-9.9 2.006-2.93 2.3-4.226.957-4.226z" fill="#3a3a3a"/>
      <path d="M75.452 220.587a.652.652 0 01.045.11h.31l-.126-.11zM-3.872 158.7c-12.94 27.994-6.47 13.997 0 0z" fill="#0185c6"/>
      <path d="M116.484 185.608c-1.75-.014-6.39 2.096-6.39 2.096-.114 1.013-1.625 7.633-1.626 7.634 0 .344-.6 1.808-1.462 3.63.634.98 2.928 1.947 5.726 2.413.89.148 1.792.237 2.65.263-.712-1.747-1.007-3.129-.648-3.488.203-.203 1.01-.37 1.792-.37 1.14 0 1.56-.547 2.115-2.753.382-1.515.548-3.321.37-4.014-.18-.692.732-4.617 1.028-6.03 0 0-2.338.63-3.555.619z" fill="#d2bba0"/>
      <path d="M110.094 187.704c-1.438.268-2.88.652-4.191 1.204.134 1.547.557 2.998 1.281 3.918.707.898 1.284 2.029 1.284 2.512 0 0 1.512-6.62 1.626-7.634z" fill="#483e37"/>
      <path d="M113.08 181.106c-2.22.032-4.476.991-5.886 2.783-1.06 1.348-1.487 3.817-1.291 6.077 5.25-2.246 10.985-3.773 16.077-4.65l2.22-.367-2.569-.515c-1.412-.284-3.146-1.037-3.852-1.674-1.267-1.141-2.972-1.678-4.699-1.654z" fill="#f37538"/>
      <path d="M29.942 259.32c-.121-3.583-.337-4.065-.131-4.064.121 0 6.764.467 14.022.777 29.13 1.247 40.86 1.683 56.828 2.112 7.597.204 32.654.203 40.6-.002 15.514-.4 27.19-.796 50.893-1.724 16.584-.65 19.378-.747 19.45-.676.04.04-.099.41-.308.822-.21.412-.627 1.346-.928 2.075-.647 1.565-1.254 2.68-2.043 3.75l-.574.781h-88.778l-88.905-.126z" fill="#3a3a3a" paint-order="stroke markers fill"/>
      <path d="M140.796 216.225l-11.792 7.927a2.54 2.54 0 102.835 4.217l11.792-7.927z" fill="#626375"/>
      <path d="M129.71 225.202l11.792-7.927 2.13 3.167-2.836-4.217-11.792 7.927a2.54 2.54 0 00-.69 3.526c.121.182.262.342.418.48a2.542 2.542 0 01.978-2.956z" fill="#75778c"/>
      <path d="M173.882 196.967l-.706-1.05a1.21 1.21 0 00-1.68-.33l-32.184 21.636 2.057 3.059 32.184-21.636a1.21 1.21 0 00.33-1.68z" fill="#c89173"/>
      <path d="M172.202 196.637a1.21 1.21 0 011.68.329l-.706-1.05a1.21 1.21 0 00-1.68-.329l-32.184 21.636.706 1.05z" fill="#e0a381"/>
      <circle cx="183.792" cy="190.108" r="4.037" transform="rotate(11.09)" fill="#c9cff2"/>
      <path d="M142.248 219.609a4.038 4.038 0 015.21.6 4.037 4.037 0 10-6.619 4.449 4.038 4.038 0 011.41-5.05z" fill="#e6e9ff"/>
      <circle cx="183.792" cy="190.108" r="1.851" transform="rotate(11.09)" fill="#626375"/>
      <path d="M147.765 217.452c-.484-.095-.878-.32-1.136-.706a.67.67 0 111.113-.748c.232.346 2.084.28 4.616-1.423 2.532-1.702 3.293-3.391 3.06-3.738a.669.669 0 01.182-.93.67.67 0 01.931.182c.09.133.535.26 1.4.066.967-.216 2.11-.745 3.216-1.489 2.533-1.702 3.293-3.391 3.06-3.737a.668.668 0 01.183-.93.67.67 0 01.93.182c.09.132.536.26 1.4.066.968-.217 2.11-.745 3.217-1.489 2.532-1.702 3.292-3.391 3.06-3.738a.67.67 0 111.113-.748c1.002 1.49-.965 3.945-3.425 5.6-1.24.834-2.546 1.432-3.673 1.684-.399.09-.963.172-1.503.101-.353 1.355-1.857 2.943-3.613 4.123-1.242.834-2.546 1.433-3.673 1.685-.4.089-.963.172-1.503.1-.353 1.355-1.858 2.943-3.614 4.123-1.824 1.227-3.954 2.036-5.342 1.764z" fill="#626375"/>
      <path d="M147.416 229.481l-3.53.03a.67.67 0 01-.676-.666l-.056-6.858a.671.671 0 011.342-.011l.05 6.187 2.86-.023a.67.67 0 01.01 1.341z" fill="#4d4e5c">
         <animateTransform attributeName="transform" attributeType="XML" type="rotate" from="360 143.8 222.10" to="0 143.8 222.10" dur="1s" repeatCount="indefinite"/>
      </path>
      <path d="M115.382 201.644a20.132 20.132 0 01-2.65-.262c-2.798-.467-5.092-1.434-5.725-2.414-.354.748-.747 1.55-1.167 2.369-2.419 4.708-2.598 5.402-2.24 8.65.213 1.943.872 5.44 1.462 7.772.955 3.77.978 4.859.21 9.802-.66 4.242-.695 6.118-.144 7.91 1.523 4.963-1.02.554-3.771-6.536-1.506-3.881-2.85-6.72-2.988-6.307-.33.988 3.563 14.238 4.728 16.093l.907 1.445h-.005c.027.037.053.074.075.11h38.792l16.246-.456c-3.102-.073-3.902-.37-5.052-1.441-1.257-1.171-1.434-1.688-.876-2.569.442-.698 1.32-1.026 2.392-.896.93.114 1.693-.103 1.693-.481 0-.379-.424-.688-.94-.688-.519 0-1.987-.918-3.265-2.04-1.887-1.656-2.43-1.867-2.9-1.123-.813 1.282-.739 1.906.202 1.718 1.29-.258.564 4.78-.885 6.144-.683.642-2.2 1.323-3.374 1.513-2.588.42-3.11-.5-2.292-4.047 1.018-4.422.688-4.704-7.736-6.615a20.363 20.363 0 00-5.294-.548c-2.65.072-5.85.164-7.11.204-.79.025-1.157.032-1.638.044-1.94.419-3.936.38-3.936-.344 0-.713 1.205-1.08 5.288-1.604l.085-.056c4.522-.215 9.593-1.703 12.846-2.557 1.981-.48 2.7-.994 2.847-2.04.184-1.29-.925-2.079-1.949-1.994-13.69 2.403-10.01 1.91-14.623 1.682l-3.532-.216v-6.742c0-6.24-.133-6.966-1.794-9.738a28.102 28.102 0 01-1.887-3.742z" fill="#3a3a3a"/>
      <path d="M173.442 198.28l32.411 64.823" fill="none" stroke="#c9cff2" stroke-width=".465"/>
      <path d="M141.656 259.82c-2.257-.027-4.105.456-6.145 1.458-2.551 1.254-4.217 1.668-6.7 1.665-2.375-.004-3.9-.28-9.107-1.654-1.674-.442-3.777-.939-4.672-1.104-1.485-.276-1.794-.302-3.522-.304-1.639-.001-2.021.027-2.837.212-1.253.284-2.104.603-3.782 1.417-2.224 1.08-3.772 1.43-6.294 1.428-2.272-.002-4.122-.331-8.503-1.513-4.495-1.212-6.572-1.591-8.725-1.591-2.274 0-3.977.403-6.103 1.445-2.57 1.259-4.169 1.66-6.63 1.662-2.432 0-3.994-.28-9.112-1.633-1.712-.453-3.843-.96-4.735-1.125-1.478-.274-1.79-.3-3.516-.302-1.64-.001-2.022.027-2.837.212-1.256.284-2.153.62-3.812 1.427-2.206 1.074-3.743 1.42-6.286 1.419-2.262-.001-4.154-.34-8.5-1.516a132.407 132.407 0 00-2.205-.587l-.007.242c-.002-.04-.007-.083-.006-.12.023-.33-3.762-1.028-5.901-1.1-.33-.01-.647-.014-.951-.01-2.131.026-3.696.43-5.74 1.43-2.57 1.26-4.168 1.66-6.629 1.662-2.567 0-4.032-.271-9.98-1.86-1.217-.325-2.95-.727-3.851-.894-1.497-.277-1.803-.304-3.533-.305-1.639-.001-2.022.027-2.837.211-1.214.276-2.228.645-3.435 1.252-2.03 1.022-3.594 1.466-5.527 1.573-2.51.138-4.67-.179-8.911-1.307-3.397-.903-5.375-1.368-6.67-1.57-1.423-.222-4.256-.222-5.39-.001-.895.174-2.653.764-3.196 1.072l-.34.194v3.995h72.839l.026-.001v.002h236.401v-5.358c-.42-.038-.844-.064-1.326-.08-2.702-.095-4.247.247-6.958 1.539-2.522 1.201-3.946 1.542-6.428 1.54-2.377-.002-3.904-.28-9.108-1.658-4.611-1.221-6.438-1.515-8.87-1.425-2.156.08-3.48.448-5.926 1.65-2.159 1.059-3.783 1.431-6.241 1.43-2.247-.002-4.233-.342-8.077-1.384-4.807-1.302-6.408-1.616-8.63-1.693-2.64-.091-4.3.26-6.667 1.413-2.605 1.268-4.224 1.67-6.724 1.667-2.345-.002-4.066-.314-9.084-1.65-1.458-.387-3.163-.812-3.788-.942-1.534-.321-3.027-.495-4.369-.514-.191-.002-.38-.001-.565.002-.494.01-.963.041-1.402.097l-1 .1v.076l-.21.044c-.718.149-2.174.712-3.472 1.344-2.25 1.093-3.782 1.442-6.337 1.44-2.312 0-4.194-.358-9.814-1.86-3.042-.813-5.352-1.234-7.343-1.259z" fill="#65aee2" paint-order="stroke markers fill">
         <animateTransform attributeName="transform" attributeType="XML" type="translate" from="15" to="-15" dur="6s" repeatCount="indefinite"/>
      </path>
      <path d="M141.656 257.704c-2.257-.038-4.105.631-6.145 2.021-2.551 1.738-4.217 2.312-6.7 2.308-2.375-.005-3.9-.389-9.107-2.293-1.674-.612-3.777-1.301-4.672-1.53-1.485-.382-1.794-.42-3.522-.422-1.639-.002-2.021.038-2.837.294-1.253.394-2.104.835-3.782 1.965-2.224 1.496-3.772 1.983-6.294 1.98-2.272-.004-4.122-.46-8.503-2.098-4.495-1.68-6.572-2.206-8.725-2.206-2.274 0-3.977.559-6.103 2.003-2.57 1.745-4.169 2.301-6.63 2.303-2.432.002-3.994-.386-9.112-2.263-1.712-.628-3.843-1.33-4.735-1.559-1.478-.38-1.79-.416-3.516-.419-1.64-.002-2.022.038-2.837.294-1.256.394-2.153.86-3.812 1.979-2.206 1.487-3.743 1.968-6.286 1.966-2.262-.002-4.154-.47-8.5-2.102a104.288 104.288 0 00-2.205-.813l-.007.335c-.002-.055-.007-.114-.006-.166.023-.457-3.762-1.425-5.901-1.524-.33-.015-.647-.02-.951-.015-2.131.037-3.696.596-5.74 1.983-2.57 1.746-4.168 2.301-6.629 2.303-2.567.002-4.032-.376-9.98-2.577-1.217-.45-2.95-1.008-3.851-1.24-1.497-.384-1.803-.421-3.533-.423-1.639-.002-2.022.037-2.837.293-1.214.382-2.228.894-3.435 1.735-2.03 1.416-3.594 2.033-5.527 2.18-2.51.192-4.67-.247-8.911-1.81-3.397-1.252-5.375-1.898-6.67-2.177-1.423-.307-4.256-.309-5.39-.002-.895.241-2.653 1.059-3.196 1.486l-.34.268v5.539h72.839c.01 0 .017-.002.026-.003v.003h236.401v-7.427c-.42-.053-.844-.088-1.326-.111-2.702-.131-4.247.343-6.958 2.133-2.522 1.666-3.946 2.139-6.428 2.136-2.377-.003-3.904-.388-9.108-2.299-4.611-1.693-6.438-2.1-8.87-1.975-2.156.11-3.48.622-5.926 2.286-2.159 1.469-3.783 1.985-6.241 1.982-2.247-.002-4.233-.473-8.077-1.917-4.807-1.805-6.408-2.24-8.63-2.347-2.64-.127-4.3.361-6.667 1.959-2.605 1.757-4.224 2.314-6.724 2.31-2.345-.002-4.066-.435-9.084-2.286-1.458-.537-3.163-1.126-3.788-1.307-1.534-.444-3.027-.685-4.369-.712a13.25 13.25 0 00-.565.003 9.716 9.716 0 00-1.402.134l-1 .14v.105l-.21.06c-.718.207-2.174.988-3.472 1.864-2.25 1.516-3.782 1.999-6.337 1.996-2.312-.002-4.194-.496-9.814-2.578-3.042-1.127-5.352-1.711-7.343-1.745z" fill="#65aee2aa" paint-order="stroke markers fill">
         <animateTransform attributeName="transform" attributeType="XML" type="translate" from="15" to="-15" dur="3s" repeatCount="indefinite"/>
      </path>
   </g>
</svg>