<svg viewBox="0 0 161 22" xmlns="http://www.w3.org/2000/svg" xmlns:xlink="http://www.w3.org/1999/xlink"><defs><path d="m158.42 2.296h-.372v-.708h.57c.247 0 .519.04.519.347 0 .406-.435.361-.717.361m.966-.356c0-.168-.076-.347-.224-.433-.151-.088-.319-.096-.488-.096h-.871v1.998h.245v-.923h.45l.569.923h.289l-.602-.923c.356-.009.633-.155.633-.546m-.916 2.045c-.871 0-1.573-.703-1.573-1.58 0-.862.701-1.567 1.573-1.567.866 0 1.566.705 1.566 1.567 0 .876-.7 1.58-1.566 1.58m0-3.36c-.992 0-1.794.801-1.794 1.78 0 .994.803 1.794 1.794 1.794.986 0 1.78-.801 1.78-1.794 0-.979-.794-1.78-1.78-1.78m-28.62 16.298c-3.213 0-3.801-2.738-3.801-5.651 0-4.01 1.338-6.06 3.56-6.06 1.98 0 3.235 1.241 3.426 3.405h5.989c-.505-5.335-3.796-8.479-9.684-8.479-5.38 0-9.605 4.182-9.605 10.899 0 6.751 3.852 10.959 10.222 10.959 5.084 0 8.645-3.23 9.207-8.592h-6.08c-.24 1.989-1.203 3.516-3.234 3.516m-17.201-9.814l.238 4.602-6.876-11.03h-5.913v20.222h6.05v-6.404l-.242-4.609 6.876 11.01h5.916v-20.222h-6.05v6.433m-25.336 6.908l1.954-7.247 2.032 7.247h-3.986m-1.205-13.341l-6.687 19.59c.026.003.048.014.077.014v.619h5.89l.721-2.667h6.287l.753 2.667h6.287l-6.904-20.222h-6.422m-16.14 8.734h-2.49v-4.02h2.945c1.473 0 2.542.675 2.542 2.108 0 1.404-1.044 1.91-2.997 1.91m8.86 7.332c0-4.074-1.236-4.58-3.267-5.365 2.248-.645 3.238-2.611 3.238-4.945 0-3.931-2.114-5.756-8.535-5.756h-9.1v20.222h6.311v-7.05h1.928c2.943 0 3.37.871 3.37 3.511 0 1.798.162 3.092.321 3.539h6.107l.216-.633c-.66-.069-.592-.986-.592-3.524m-26.807-3.568h-.053l-2.302-12.499h-5.218l-2.302 12.499h-.053l-2.167-12.499h-6.104l4.792 20.222h6.208l2.196-11.743h.051l2.223 11.743h6.208l4.789-20.222h-6.1l-2.167 12.499m-27.426 3.315c-3.02 0-3.773-3.23-3.773-5.814 0-2.557.858-5.592 3.72-5.592 2.781-.082 3.853 2.84 3.853 5.592 0 3.341-1.072 5.814-3.8 5.814m0-16.349c-5.993 0-10.09 4.13-10.09 10.477 0 6.881 4.04 10.814 10.09 10.814 5.703 0 10.115-3.876 10.115-10.757 0-5.339-3.238-10.534-10.115-10.534m-18.28.535h-6.317v20.222h14.986v-4.719h-8.669v-15.503m139.81 12.33h7.942v-4.718h-7.942v-2.896h9.39v-4.716h-15.708v20.222h16.08v-4.719h-9.764v-3.173" id="0"/><mask id="1" fill="#fff"><use xlink:href="#0"/></mask></defs><g fill="none" fill-rule="evenodd"><use fill="#223d6a" xlink:href="#0"/><g mask="url(#1)" fill="#1c3f94"><path d="m0 0h161v22h-161z"/></g></g></svg>