<svg xmlns="http://www.w3.org/2000/svg" viewBox="0 0 185.1 59.35"><defs><style>.cls-1{fill:#86764e;}.cls-2{fill:#00843d;}</style></defs><title>crown-logoAsset 1</title><g id="Layer_2" data-name="Layer 2"><g id="Layer_1-2" data-name="Layer 1"><g id="Layer_2-2" data-name="Layer 2"><g id="Artwork"><path class="cls-1" d="M61.55,38.84v-.7h.58c.25,0,.61,0,.61.32s-.2.38-.48.38Zm1,.38a.61.61,0,0,0,.69-.7c0-.49-.32-.77-1-.77H61V40.3h.54V39.22H62l.57,1.09h.61ZM62,41.38A2.36,2.36,0,1,0,59.64,39,2.36,2.36,0,0,0,62,41.38m0-.56A1.8,1.8,0,1,1,63.74,39V39a1.7,1.7,0,0,1-1.6,1.8H62"/><path class="cls-1" d="M55.89,30.13c-5.38-2.9-14.26-4-21.38-4a57.27,57.27,0,0,0-15,1.8,23.23,23.23,0,0,0-6.29,2.27c-1.68-6.84-3.48-10.87-8.58-14.83a24.41,24.41,0,0,1,6.05-4.59c2,4.27,4.77,5.05,6,5.19a4.94,4.94,0,0,0,4.84-2.46,6.41,6.41,0,0,0,.87-3.33,10.55,10.55,0,0,0-1.32-4.84,22.34,22.34,0,0,1,7.56-1.71,15.45,15.45,0,0,0-.12,1.75c0,3.21,1.07,5.75,3.08,7.13a5.24,5.24,0,0,0,6,0c2.12-1.43,3.26-4.09,3.26-7.44a10.27,10.27,0,0,0-.09-1.64,24.1,24.1,0,0,1,7.37,1.83,10.46,10.46,0,0,0-1.41,4.94,6.41,6.41,0,0,0,.91,3.4A5.1,5.1,0,0,0,52.81,16c2.48-.35,4.57-2.29,5.84-5.26a23.66,23.66,0,0,1,6,4.76c-5.41,3.47-6.93,7.9-8.76,14.61M50,37a61.22,61.22,0,0,1-15.5,1.75A61.28,61.28,0,0,1,19,37c-4-1.08-5.16-2.22-5.37-2.63A16.7,16.7,0,0,1,20,31.28,64.34,64.34,0,0,1,34.5,29.79,61.77,61.77,0,0,1,50,31.56c4.45,1.2,5.4,2.49,5.4,2.74s-1,1.54-5.4,2.75M68.22,14.5A28.33,28.33,0,0,0,58.36,7L56.61,6.2,56.1,8c-.88,3.21-2.54,4.55-3.8,4.73a1.84,1.84,0,0,1-1.9-.85c-.67-1.09-.66-3.34,1.44-6.39L52.92,4l-1.7-.84A27.85,27.85,0,0,0,38.85.07L36.74,0l.45,2.06c.94,4.37-.13,6.88-1.45,7.76a1.93,1.93,0,0,1-2.27,0c-1.25-.86-2.23-3.3-1.25-7.6L32.71.05,29.9.25C25.9.53,22.82.75,18,3.16L16.27,4l1.09,1.55c2,2.9,2,5.14,1.34,6.27a1.66,1.66,0,0,1-1.64.87c-1.19-.13-2.84-1.46-3.95-4.79L12.48,6,10.75,7C6.36,9.44,3.19,11.56.94,14.79L0,16.14l1.35,1C6.94,21,8.48,24.22,10.5,33a3.36,3.36,0,0,0-.26,1.29c0,5.36,12.55,7.81,24.21,7.81s24.2-2.45,24.2-7.81a3.27,3.27,0,0,0-.18-1.08l.19-.7c2.22-8.18,3.22-11.93,9.34-15.12l1.93-1Z"/><path class="cls-1" d="M34.65,18.89a1.73,1.73,0,1,0,1.71,1.75s0,0,0,0a1.72,1.72,0,0,0-1.71-1.72"/><path class="cls-1" d="M28.17,19.62a1.73,1.73,0,1,0,0,3.46h0a1.73,1.73,0,0,0,0-3.46"/><path class="cls-1" d="M41.3,19.56A1.73,1.73,0,1,0,43,21.29a1.73,1.73,0,0,0-1.73-1.73h0"/><path class="cls-1" d="M21.58,20.62a1.73,1.73,0,1,0,1.72,1.74,1.73,1.73,0,0,0-1.72-1.74h0"/><path class="cls-1" d="M14.88,22.75a1.72,1.72,0,1,0,1.74,1.72,1.72,1.72,0,0,0-1.74-1.72h0"/><path class="cls-1" d="M47.9,20.65a1.73,1.73,0,1,0,1.72,1.73,1.72,1.72,0,0,0-1.72-1.73"/><path class="cls-1" d="M54.6,22.74a1.72,1.72,0,1,0,1.73,1.72,1.72,1.72,0,0,0-1.73-1.72"/><path class="cls-2" d="M88.82,21.29A3.92,3.92,0,0,0,84.54,18c-1.93,0-4.78,1.29-4.78,6.75,0,3.47,1.37,6.59,4.78,6.59a4.13,4.13,0,0,0,4.28-3.63h4c-.8,4.2-3.56,7.13-8.4,7.13-5.14,0-8.82-3.47-8.82-10.14s3.9-10.2,8.88-10.2c5.78,0,8.12,4,8.34,6.83Z"/><path class="cls-2" d="M95.51,34.29h4V26.73h4.17c3,0,3.14,1,3.14,3.66a13.12,13.12,0,0,0,.42,3.9h4.48v-.52c-.87-.32-.87-1-.87-3.85,0-3.6-.86-4.19-2.44-4.89a4.62,4.62,0,0,0,3-4.61c0-1.67-.94-5.46-6.07-5.46H95.51Zm4-10.82V18.3h5c2.35,0,2.81,1.51,2.81,2.53,0,1.91-1,2.64-3.1,2.64Z"/><path class="cls-2" d="M113.66,24.63c0,9.06,6.72,10.16,9.28,10.16s9.29-1.1,9.29-10.16-6.73-10.17-9.29-10.17-9.28,1.1-9.28,10.17m4,0c0-5.42,3.07-6.76,5.25-6.76s5.24,1.34,5.24,6.76-3.06,6.75-5.24,6.75-5.25-1.35-5.25-6.75"/><path class="cls-2" d="M132.45,15h4.31c2.48,10.58,2.72,11.92,3.07,14.12h0c.35-2,.64-4,2.69-14.12h4.28c2.31,10.59,2.51,11.59,2.94,14.12h0c.33-1.82.65-3.49,3.15-14.12H157l-5.43,19.32h-3.88c-2-9.48-2.34-11.35-3-15.07h-.06c-.59,3.72-.92,5.11-3,15.07h-3.77Z"/><polygon class="cls-2" points="170.85 14.97 174.62 14.97 174.62 34.29 170.58 34.29 162.69 20.51 162.65 20.51 162.65 34.29 158.87 34.29 158.87 14.97 163.14 14.97 170.79 28.42 170.85 28.42 170.85 14.97"/><path class="cls-2" d="M13.81,53h1.82A1,1,0,0,0,16.71,52s0-.06,0-.08c0-.55-.33-.74-.85-.74h-1.7Zm-.65,3.09h2a1.13,1.13,0,0,0,1.26-1.18c0-.76-.69-.82-1.27-.82H13.58Zm-.27-6H16c1.46,0,2.37.32,2.37,1.7a1.62,1.62,0,0,1-1.37,1.7h0A1.45,1.45,0,0,1,18,54.91c0,1.58-1.33,2.39-2.79,2.39H11.35Z"/><path class="cls-2" d="M21.27,52h1.38l-.21,1h0a1.93,1.93,0,0,1,1.82-1.11,2.91,2.91,0,0,1,.45,0l-.3,1.41a3,3,0,0,0-.61-.1c-1.11,0-1.51.84-1.7,1.74l-.49,2.34H20.17Z"/><path class="cls-2" d="M29.48,54.77a2.76,2.76,0,0,1-1.23.26c-.55.06-1.07.2-1.07.86,0,.4.38.59.8.59a1.35,1.35,0,0,0,1.36-1.19Zm-3.06-1.14c.18-1.33,1.31-1.74,2.5-1.74.94,0,2.22.2,2.2,1.39a5.62,5.62,0,0,1-.11.89l-.47,2.13a3.19,3.19,0,0,0-.07.71,1.05,1.05,0,0,0,0,.31H29.06V56.8a2.17,2.17,0,0,1-1.62.66c-1.15,0-1.72-.66-1.72-1.39,0-1,.76-1.64,2-1.8s2-.09,2-.77c0-.52-.55-.64-.92-.64a1,1,0,0,0-1.07.77Z"/><path class="cls-2" d="M34.18,52h1.39l-.16.73h0a2.28,2.28,0,0,1,1.85-.88c1,0,1.54.5,1.54,1.42a6.38,6.38,0,0,1-.15.91L38,57.3H36.56l.64-3.09a3.72,3.72,0,0,0,.1-.65c0-.32-.36-.54-.7-.54-.88,0-1.33.73-1.48,1.47l-.59,2.81H33.08Z"/><path class="cls-2" d="M42.51,55.18a1.05,1.05,0,0,0,.91,1.17h.09c1.08,0,1.59-1.33,1.59-2.24A1,1,0,0,0,44.25,53H44.1c-1.09,0-1.58,1.27-1.58,2.2m2.16,1.47h0a1.74,1.74,0,0,1-1.58.82,1.9,1.9,0,0,1-2-2.08c0-1.74.93-3.48,2.88-3.48a1.52,1.52,0,0,1,1.48.85h0L46,50h1.45L45.91,57.3h-1.4Z"/><polygon class="cls-2" points="49.28 53.89 49.02 55.14 52.09 55.14 52.35 53.89 49.28 53.89"/><path class="cls-2" d="M56.84,53h1.82A1,1,0,0,0,59.74,52s0-.06,0-.08c0-.55-.33-.74-.85-.74h-1.7Zm-.66,3.09h2a1.13,1.13,0,0,0,1.26-1.18c0-.76-.68-.82-1.26-.82H56.61Zm-.27-6H59c1.46,0,2.37.32,2.37,1.7A1.62,1.62,0,0,1,60,53.41h0a1.45,1.45,0,0,1,1.08,1.48c0,1.58-1.33,2.39-2.79,2.39H54.38Z"/><path class="cls-2" d="M68.21,57.3H66.82l.18-.74h0a2.27,2.27,0,0,1-1.85.88c-1,0-1.54-.5-1.54-1.42a6.45,6.45,0,0,1,.15-.91L64.41,52h1.45l-.64,3.09a3.72,3.72,0,0,0-.09.64c0,.32.36.54.69.54.88,0,1.33-.73,1.48-1.47L67.89,52h1.45Z"/><path class="cls-2" d="M73.71,51.21H72.25L72.52,50H74ZM72.09,52h1.46l-1.12,5.28H71Z"/><polygon class="cls-2" points="76.7 50.01 78.15 50.01 76.6 57.3 75.15 57.3 76.7 50.01"/><path class="cls-2" d="M81,55.18a1,1,0,0,0,.91,1.17H82c1.08,0,1.59-1.33,1.59-2.24A1,1,0,0,0,82.74,53h-.15c-1.1,0-1.58,1.27-1.58,2.2m2.17,1.47h0a1.74,1.74,0,0,1-1.59.82,1.89,1.89,0,0,1-2-2.08c0-1.74.93-3.48,2.88-3.48a1.52,1.52,0,0,1,1.48.85h0L84.53,50H86l-1.54,7.29H83Z"/><path class="cls-2" d="M89.84,51.21H88.38L88.64,50H90.1ZM88.22,52h1.46l-1.12,5.28H87.09Z"/><path class="cls-2" d="M92.37,52h1.39l-.16.73h0a2.28,2.28,0,0,1,1.85-.88c1,0,1.54.5,1.54,1.42a6,6,0,0,1-.15.91l-.66,3.09H94.75l.64-3.09a3.72,3.72,0,0,0,.09-.64c0-.32-.36-.54-.7-.54a1.6,1.6,0,0,0-1.48,1.47l-.59,2.81H91.27Z"/><path class="cls-2" d="M100.79,55c0,.62.31,1.16,1,1.16,1,0,1.54-1.11,1.54-2a1,1,0,0,0-.85-1.13h-.15c-1,0-1.48,1.14-1.48,2M104.2,57a2.54,2.54,0,0,1-2.76,2.3l-.15,0c-1.07,0-2.26-.46-2.26-1.72h1.45c0,.53.48.76.95.76.92,0,1.19-.81,1.47-1.84h0a1.73,1.73,0,0,1-1.45.75,2,2,0,0,1-2-2q0-.08,0-.17c0-1.54,1-3.18,2.67-3.18a1.59,1.59,0,0,1,1.61,1h0l.16-.81h1.39Z"/><path class="cls-2" d="M113.69,53.44h1.63a1.17,1.17,0,0,0,1.32-1.27c0-.73-.57-.91-1.13-.91h-1.37Zm-.9-3.43h2.92c1.47,0,2.53.51,2.53,2.13a2.61,2.61,0,0,1-2.66,2.56H113.4l-.55,2.61h-1.6Z"/><path class="cls-2" d="M123.33,54.77a2.76,2.76,0,0,1-1.23.26c-.55.06-1.07.2-1.07.86,0,.4.38.59.79.59a1.36,1.36,0,0,0,1.36-1.19Zm-3.06-1.14c.19-1.33,1.31-1.74,2.5-1.74.94,0,2.22.2,2.19,1.39a5.29,5.29,0,0,1-.11.89l-.47,2.13a3.38,3.38,0,0,0-.07.71,1.15,1.15,0,0,0,0,.31h-1.45V56.8a2.17,2.17,0,0,1-1.61.66c-1.16,0-1.72-.66-1.72-1.39,0-1,.77-1.64,2-1.8s2-.09,2-.77c0-.52-.55-.64-.92-.64a1,1,0,0,0-1.07.77Z"/><path class="cls-2" d="M131.06,53.85c0-.62-.34-.88-1-.88-1.1,0-1.48,1.33-1.48,2.24,0,.63.26,1.14,1,1.14a1.24,1.24,0,0,0,1.18-1h1.45a2.73,2.73,0,0,1-2.73,2.07,2.07,2.07,0,0,1-2.35-2.27,3,3,0,0,1,2.68-3.28l.32,0c1.29,0,2.34.57,2.37,2Z"/><polygon class="cls-2" points="135.66 50.01 137.11 50.01 136.28 53.97 136.29 53.99 138.38 52.02 140.16 52.02 137.79 54.03 139.16 57.3 137.56 57.3 136.7 54.94 135.94 55.58 135.58 57.3 134.13 57.3 135.66 50.01"/><path class="cls-2" d="M145.14,54.77a2.77,2.77,0,0,1-1.23.26c-.55.06-1.07.2-1.07.86,0,.4.38.59.79.59.9,0,1.19-.62,1.36-1.19Zm-3.06-1.14c.18-1.33,1.31-1.74,2.5-1.74.94,0,2.22.2,2.19,1.39a5.29,5.29,0,0,1-.11.89l-.47,2.13a3.38,3.38,0,0,0-.07.71,1.15,1.15,0,0,0,0,.31h-1.45V56.8a2.16,2.16,0,0,1-1.61.66c-1.15,0-1.72-.66-1.72-1.39,0-1,.76-1.64,2-1.8s2-.09,2-.77c0-.52-.55-.64-.92-.64a1,1,0,0,0-1.07.77Z"/><path class="cls-2" d="M150.48,55c0,.62.31,1.16,1,1.16,1,0,1.54-1.11,1.54-2a1,1,0,0,0-.85-1.13H152c-1,0-1.48,1.14-1.48,2M153.89,57a2.54,2.54,0,0,1-2.76,2.3l-.15,0c-1.07,0-2.26-.46-2.26-1.72h1.45c0,.53.48.76.95.76.92,0,1.19-.81,1.47-1.84h0a1.73,1.73,0,0,1-1.45.75,2,2,0,0,1-2-2q0-.08,0-.17c0-1.54,1-3.18,2.67-3.18a1.59,1.59,0,0,1,1.61,1h0l.16-.81H155Z"/><path class="cls-2" d="M159.25,51.21h-1.46L158,50h1.46Zm-1.62.82h1.46L158,57.3h-1.46Z"/><path class="cls-2" d="M161.79,52h1.39l-.16.73h0a2.28,2.28,0,0,1,1.85-.88c1,0,1.54.5,1.54,1.42a6.38,6.38,0,0,1-.15.91l-.65,3.09h-1.45l.64-3.09a3.72,3.72,0,0,0,.09-.64c0-.32-.36-.54-.7-.54-.88,0-1.33.73-1.48,1.47l-.59,2.81h-1.45Z"/><path class="cls-2" d="M170.2,55c0,.62.31,1.16,1,1.16,1,0,1.54-1.11,1.54-2a1,1,0,0,0-.85-1.13h-.15c-1,0-1.48,1.14-1.48,2M173.61,57a2.54,2.54,0,0,1-2.76,2.3l-.15,0c-1.07,0-2.26-.46-2.26-1.72h1.45c0,.53.48.76.95.76.92,0,1.19-.81,1.47-1.84h0a1.74,1.74,0,0,1-1.45.75,2,2,0,0,1-2-2q0-.08,0-.17c0-1.54,1-3.18,2.66-3.18a1.59,1.59,0,0,1,1.61,1h0l.17-.81h1.39Z"/><polygon class="cls-2" points="179.82 51.46 178.5 51.46 177.77 54.94 177.25 54.94 177.98 51.46 176.67 51.46 176.76 51.02 179.92 51.02 179.82 51.46"/><polygon class="cls-2" points="184.38 51.02 182.44 54.39 182.43 54.39 181.91 51.02 181.18 51.02 180.35 54.94 180.86 54.94 181.54 51.51 181.55 51.51 182.06 54.94 182.56 54.94 184.56 51.51 184.58 51.51 183.78 54.94 184.28 54.94 185.1 51.02 184.38 51.02"/></g></g></g></g></svg>