<?xml version="1.0" encoding="UTF-8" standalone="no"?>
<svg
   xmlns:dc="http://purl.org/dc/elements/1.1/"
   xmlns:cc="http://creativecommons.org/ns#"
   xmlns:rdf="http://www.w3.org/1999/02/22-rdf-syntax-ns#"
   xmlns:svg="http://www.w3.org/2000/svg"
   xmlns="http://www.w3.org/2000/svg"
   viewBox="0 0 774.66669 327.20932"
   height="327.20932"
   width="774.66669"
   xml:space="preserve"
   id="svg2"
   version="1.1"><metadata
     id="metadata8"><rdf:RDF><cc:Work
         rdf:about=""><dc:format>image/svg+xml</dc:format><dc:type
           rdf:resource="http://purl.org/dc/dcmitype/StillImage" /></cc:Work></rdf:RDF></metadata><defs
     id="defs6"><clipPath
       id="clipPath18"
       clipPathUnits="userSpaceOnUse"><path
         id="path16"
         d="M 0,245.407 H 581 V 0 H 0 Z" /></clipPath></defs><g
     transform="matrix(1.3333333,0,0,-1.3333333,0,327.20933)"
     id="g10"><g
       id="g12"><g
         clip-path="url(#clipPath18)"
         id="g14"><g
           transform="translate(212.9932,94.2518)"
           id="g20"><path
             id="path22"
             style="fill:#181213;fill-opacity:1;fill-rule:evenodd;stroke:none"
             d="M 0,0 C -1.062,1.419 -5.423,1.312 -6.328,-0.191 -7.548,-2.219 -7.093,-3.902 -7.093,-3.902 -3.836,-4.306 0,0 0,0" /></g><g
           transform="translate(307.5421,106.2992)"
           id="g24"><path
             id="path26"
             style="fill:#181213;fill-opacity:1;fill-rule:nonzero;stroke:none"
             d="M 0,0 C 0.844,2.09 1.663,3.989 2.371,5.93 2.707,6.849 3.176,7.173 4.184,7.167 11.983,7.12 19.783,7.136 27.583,7.154 c 0.442,0.001 1.166,0.067 1.281,0.321 0.869,1.903 1.619,3.861 2.434,5.871 -0.337,0.056 -0.49,0.104 -0.643,0.104 -10.319,0.005 -20.639,-0.004 -30.959,0.025 -0.801,0.002 -0.992,-0.442 -1.225,-1.021 -1.495,-3.7 -3.026,-7.385 -4.5,-11.094 -0.298,-0.751 -0.626,-1.097 -1.528,-1.137 -3.469,-0.155 -6.948,-0.314 -10.396,-0.704 -9.575,-1.084 -18.969,-3.124 -28.269,-5.624 -9.636,-2.59 -19.113,-5.672 -28.474,-9.125 -1.176,-0.434 -2.649,-0.897 -3.905,-1.046 -0.845,-0.101 -1.44,0.8 -1.406,1.656 0.044,1.071 0.285,2.15 0.598,3.157 1.871,6.014 3.814,12.005 5.76,17.996 0.66,2.032 1.399,4.04 2.18,6.284 -0.663,-0.286 -1.088,-0.463 -1.508,-0.65 -18.768,-8.38 -37.777,-16.152 -57.323,-22.553 -16.062,-5.26 -32.324,-9.711 -49.13,-11.919 -9.423,-1.238 -18.858,-1.775 -28.312,-0.405 -5.492,0.796 -10.799,2.227 -15.509,5.301 -5.881,3.838 -9.07,9.18 -8.944,16.339 0.077,4.409 1.363,8.49 3.304,12.385 4.042,8.109 10.103,14.516 17.101,20.119 0.336,0.268 0.671,0.538 1.006,0.807 -4.133,-1.693 -7.922,-3.898 -11.415,-6.59 -6.924,-5.336 -12.349,-11.822 -15.085,-20.255 -0.734,-2.26 -1.072,-4.648 -1.593,-6.977 v -5.04 c 0.083,-0.3 0.206,-0.596 0.241,-0.901 0.374,-3.295 1.324,-6.422 2.956,-9.297 4.602,-8.107 11.633,-12.843 20.686,-14.73 8.183,-1.706 16.437,-1.628 24.699,-0.901 10.838,0.953 21.492,3.018 32.056,5.57 20.734,5.008 40.943,11.705 60.965,19.001 3.091,1.127 6.178,2.268 9.595,3.523 -4.558,-11.303 -9.002,-22.322 -13.58,-33.675 3.434,1.656 6.541,3.175 9.667,4.657 10.672,5.061 21.249,10.337 32.052,15.104 14.739,6.503 29.882,11.874 45.936,14.197 1.794,0.26 3.605,0.41 5.598,0.633 -1.942,-4.789 -3.795,-9.355 -5.735,-14.139 1.948,0 3.692,0.048 5.431,-0.021 0.858,-0.033 1.265,0.258 1.58,1.057 1.358,3.452 2.784,6.878 4.195,10.31 0.392,0.956 0.899,2.871 1.621,3.338 0.712,0.46 10.687,1.054 17.646,0.833 0,0 -9.25,1.721 -16.732,2.062" /></g><g
           transform="translate(373.9288,101.1356)"
           id="g28"><path
             id="path30"
             style="fill:#181213;fill-opacity:1;fill-rule:nonzero;stroke:none"
             d="m 0,0 h -25.872 c 1.142,2.811 2.232,5.499 3.325,8.186 1.292,3.177 2.602,6.348 3.866,9.536 0.255,0.641 0.569,0.917 1.301,0.915 10.235,-0.025 20.472,-0.017 30.708,-0.02 0.195,0 0.392,-0.033 0.809,-0.071 -0.824,-2.022 -1.574,-3.97 -2.441,-5.865 -0.12,-0.262 -0.82,-0.36 -1.253,-0.361 -7.797,-0.021 -15.593,-0.041 -23.39,0.014 -1.07,0.007 -1.557,-0.334 -1.894,-1.302 -0.546,-1.572 -1.221,-3.1 -1.894,-4.782 H 9.048 C 8.876,5.725 8.771,5.317 8.612,4.93 6.388,-0.537 4.148,-5.998 1.937,-11.471 c -0.249,-0.618 -0.505,-0.964 -1.266,-0.962 -10.236,0.026 -20.472,0.017 -30.708,0.021 -0.228,0.001 -0.454,0.054 -0.845,0.102 0.816,2.007 1.553,3.932 2.406,5.803 0.122,0.267 0.807,0.389 1.233,0.391 7.757,0.022 15.514,0.041 23.27,-0.011 1.116,-0.008 1.722,0.27 2.084,1.365 C -1.376,-3.217 -0.695,-1.729 0,0" /></g><g
           transform="translate(476.5606,95.0961)"
           id="g32"><path
             id="path34"
             style="fill:#181213;fill-opacity:1;fill-rule:nonzero;stroke:none"
             d="m 0,0 c 0.464,-0.024 0.815,-0.058 1.168,-0.058 5.638,-0.003 11.275,0.017 16.913,-0.023 0.856,-0.005 1.27,0.254 1.56,1.06 0.59,1.643 1.296,3.244 2.023,5.031 H 8.728 c 0.836,2.045 1.592,3.924 2.385,5.786 0.084,0.198 0.384,0.433 0.584,0.433 6.306,0.023 12.612,0.02 19.091,0.02 -0.9,-2.206 -1.744,-4.263 -2.582,-6.322 -1.546,-3.805 -3.095,-7.609 -4.624,-11.421 -0.228,-0.569 -0.483,-0.9 -1.194,-0.898 -10.357,0.026 -20.713,0.019 -31.07,0.025 -0.115,0 -0.231,0.044 -0.464,0.091 0.154,0.456 0.276,0.899 0.449,1.321 3.882,9.529 7.776,19.054 11.644,28.589 0.264,0.652 0.503,1.047 1.329,1.045 10.197,-0.03 20.393,-0.019 30.589,-0.023 0.233,0 0.464,-0.042 0.909,-0.085 -0.587,-1.479 -1.126,-2.868 -1.69,-4.247 -0.813,-1.984 -0.82,-1.98 -2.963,-1.98 -7.517,0 -15.034,-0.016 -22.552,0.021 C 7.676,18.369 7.257,18.116 6.917,17.262 4.765,11.851 2.54,6.469 0.345,1.075 0.215,0.756 0.133,0.418 0,0" /></g><g
           transform="translate(474.8155,119.6576)"
           id="g36"><path
             id="path38"
             style="fill:#181213;fill-opacity:1;fill-rule:nonzero;stroke:none"
             d="m 0,0 c -1.173,-2.875 -2.299,-5.632 -3.421,-8.39 -2.914,-7.166 -5.838,-14.328 -8.725,-21.505 -0.312,-0.777 -0.691,-1.103 -1.562,-1.065 -1.741,0.076 -3.488,0.023 -5.459,0.023 3.376,8.301 6.67,16.405 10.014,24.628 -0.447,0.037 -0.783,0.087 -1.118,0.088 -5.677,0.005 -11.354,-0.014 -17.03,0.022 -0.847,0.005 -1.251,-0.254 -1.574,-1.059 -3.018,-7.511 -6.11,-14.991 -9.108,-22.509 -0.389,-0.973 -0.883,-1.228 -1.84,-1.189 -1.667,0.067 -3.339,0.019 -5.209,0.019 0.212,0.551 0.354,0.943 0.511,1.33 3.889,9.567 7.781,19.133 11.667,28.701 0.23,0.563 0.391,1.03 1.218,1.027 C -21.282,0.084 -10.929,0.094 -0.575,0.09 -0.457,0.089 -0.34,0.054 0,0" /></g><g
           transform="translate(399.7452,119.7557)"
           id="g40"><path
             id="path42"
             style="fill:#181213;fill-opacity:1;fill-rule:nonzero;stroke:none"
             d="m 0,0 c -1.704,-4.205 -3.326,-8.21 -4.997,-12.333 0.468,-0.031 0.806,-0.072 1.144,-0.072 5.677,-0.004 11.354,0.021 17.031,-0.027 0.883,-0.008 1.254,0.312 1.554,1.076 1.378,3.486 2.826,6.945 4.199,10.433 0.279,0.71 0.648,0.964 1.407,0.94 C 22.121,-0.037 23.907,0 25.893,0 c -0.725,-1.797 -1.372,-3.41 -2.026,-5.019 -3.38,-8.311 -6.771,-16.617 -10.126,-24.939 -0.332,-0.823 -0.743,-1.149 -1.66,-1.103 -1.706,0.087 -3.42,0.025 -5.371,0.025 1.701,4.203 3.333,8.236 5.02,12.408 H 7.508 c -4.638,0 -9.276,-0.029 -13.912,0.025 -0.92,0.011 -1.326,-0.311 -1.648,-1.126 -1.373,-3.487 -2.827,-6.941 -4.198,-10.429 -0.265,-0.674 -0.595,-0.912 -1.308,-0.893 -1.794,0.047 -3.589,0.015 -5.594,0.015 0.3,0.784 0.539,1.434 0.799,2.076 3.784,9.309 7.582,18.612 11.338,27.933 0.323,0.8 0.726,1.079 1.576,1.047 C -3.698,-0.046 -1.954,0 0,0" /></g><g
           transform="translate(437.2979,119.7557)"
           id="g44"><path
             id="path46"
             style="fill:#181213;fill-opacity:1;fill-rule:nonzero;stroke:none"
             d="m 0,0 c -1.93,-4.758 -3.751,-9.263 -5.583,-13.762 -2.21,-5.427 -4.447,-10.843 -6.623,-16.283 -0.304,-0.759 -0.666,-1.038 -1.48,-1.01 -1.752,0.062 -3.508,0.019 -5.427,0.019 0.142,0.433 0.227,0.755 0.352,1.061 3.935,9.674 7.882,19.343 11.794,29.026 0.283,0.7 0.617,0.989 1.385,0.966 C -3.796,-0.036 -2.008,0 0,0" /></g><g
           transform="translate(331.3399,88.7201)"
           id="g48"><path
             id="path50"
             style="fill:#181213;fill-opacity:1;fill-rule:nonzero;stroke:none"
             d="m 0,0 c 1.542,3.782 2.985,7.317 4.424,10.853 2.583,6.35 5.183,12.692 7.723,19.058 0.357,0.893 0.806,1.195 1.752,1.148 1.672,-0.083 3.351,-0.023 5.206,-0.023 C 18.979,30.609 18.91,30.282 18.786,29.978 14.854,20.305 10.905,10.639 6.994,0.957 6.687,0.197 6.292,-0.048 5.492,-0.02 3.745,0.043 1.994,0 0,0" /></g><g
           transform="translate(350.4454,119.7557)"
           id="g52"><path
             id="path54"
             style="fill:#181213;fill-opacity:1;fill-rule:nonzero;stroke:none"
             d="m 0,0 c -1.855,0 -3.534,-0.06 -5.206,0.023 -0.946,0.048 -1.396,-0.255 -1.752,-1.148 -2.54,-6.366 -5.141,-12.708 -7.724,-19.058 -1.438,-3.536 -2.881,-7.071 -4.423,-10.853 1.994,0 3.745,0.044 5.492,-0.019 0.8,-0.029 1.194,0.217 1.502,0.976 3.911,9.682 7.859,19.349 11.792,29.021 C -0.195,-0.753 -0.127,-0.427 0,0" /></g><g
           transform="translate(382.9766,107.3856)"
           id="g56"><path
             id="path58"
             style="fill:#181213;fill-opacity:1;fill-rule:nonzero;stroke:none"
             d="m 0,0 h -25.783 c 0.674,1.682 1.348,3.21 1.894,4.782 0.337,0.968 0.825,1.309 1.894,1.302 7.797,-0.055 15.594,-0.035 23.391,-0.014 0.432,10e-4 1.132,0.099 1.252,0.361 0.868,1.895 1.618,3.843 2.441,5.865 -0.417,0.038 -0.613,0.071 -0.809,0.071 -10.236,0.003 -20.472,-0.005 -30.708,0.02 -0.732,0.002 -1.046,-0.274 -1.301,-0.915 -1.264,-3.188 -2.574,-6.359 -3.866,-9.536 -1.093,-2.687 -2.183,-5.375 -3.325,-8.186 h 25.872 c -0.695,-1.729 -1.376,-3.217 -1.889,-4.762 -0.362,-1.095 -0.968,-1.373 -2.084,-1.365 -7.756,0.052 -15.513,0.033 -23.27,0.011 -0.426,-0.002 -1.11,-0.124 -1.232,-0.391 -0.854,-1.871 -1.591,-3.796 -2.407,-5.803 0.391,-0.048 0.617,-0.101 0.845,-0.102 10.236,-0.004 20.472,0.005 30.708,-0.021 0.761,-0.002 1.018,0.344 1.267,0.962 2.211,5.473 4.45,10.934 6.674,16.401 C -0.277,-0.933 -0.172,-0.525 0,0" /></g><g
           transform="translate(474.8155,119.6576)"
           id="g60"><path
             id="path62"
             style="fill:#181213;fill-opacity:1;fill-rule:nonzero;stroke:none"
             d="m 0,0 c -0.34,0.054 -0.457,0.089 -0.575,0.09 -10.354,0.004 -20.707,-0.006 -31.061,0.031 -0.827,0.003 -0.988,-0.464 -1.218,-1.027 -3.886,-9.568 -7.778,-19.134 -11.667,-28.701 -0.157,-0.387 -0.299,-0.779 -0.511,-1.33 1.87,0 3.542,0.048 5.209,-0.019 0.957,-0.039 1.451,0.216 1.84,1.189 2.998,7.518 6.09,14.998 9.108,22.509 0.323,0.805 0.727,1.064 1.574,1.059 5.676,-0.036 11.353,-0.017 17.03,-0.022 0.335,-0.001 0.671,-0.051 1.118,-0.088 -3.344,-8.223 -6.638,-16.327 -10.014,-24.628 1.971,0 3.718,0.053 5.459,-0.023 0.871,-0.038 1.25,0.288 1.562,1.065 2.887,7.177 5.811,14.339 8.725,21.505 C -2.299,-5.632 -1.173,-2.875 0,0" /></g><g
           transform="translate(425.6378,119.7557)"
           id="g64"><path
             id="path66"
             style="fill:#181213;fill-opacity:1;fill-rule:nonzero;stroke:none"
             d="m 0,0 c -1.985,0 -3.771,-0.037 -5.555,0.017 -0.758,0.024 -1.128,-0.23 -1.407,-0.94 -1.373,-3.488 -2.82,-6.947 -4.198,-10.433 -0.301,-0.764 -0.672,-1.084 -1.555,-1.076 -5.677,0.048 -11.353,0.023 -17.03,0.027 -0.339,0 -0.677,0.041 -1.145,0.072 1.671,4.123 3.293,8.128 4.997,12.333 -1.954,0 -3.698,-0.046 -5.439,0.02 -0.85,0.032 -1.253,-0.247 -1.575,-1.047 -3.757,-9.321 -7.555,-18.624 -11.338,-27.933 -0.261,-0.642 -0.499,-1.292 -0.8,-2.076 2.005,0 3.801,0.032 5.595,-0.015 0.713,-0.019 1.043,0.219 1.307,0.893 1.372,3.488 2.826,6.942 4.199,10.429 0.321,0.815 0.727,1.137 1.647,1.126 4.637,-0.054 9.275,-0.025 13.912,-0.025 h 4.223 c -1.688,-4.172 -3.319,-8.205 -5.021,-12.408 1.952,0 3.665,0.062 5.371,-0.025 0.917,-0.046 1.329,0.28 1.661,1.103 3.354,8.322 6.746,16.628 10.126,24.939 C -1.371,-3.41 -0.725,-1.797 0,0" /></g><g
           transform="translate(511.4258,119.7523)"
           id="g68"><path
             id="path70"
             style="fill:#181213;fill-opacity:1;fill-rule:nonzero;stroke:none"
             d="m 0,0 c -10.196,0.003 -20.393,-0.007 -30.589,0.023 -0.826,0.002 -1.065,-0.393 -1.329,-1.045 -3.868,-9.535 -7.763,-19.06 -11.645,-28.589 -0.172,-0.423 -0.294,-0.865 -0.448,-1.321 0.233,-0.047 0.349,-0.091 0.464,-0.091 10.357,-0.006 20.713,0.001 31.069,-0.025 0.711,-0.002 0.966,0.328 1.195,0.898 1.529,3.812 3.078,7.615 4.624,11.421 0.838,2.059 1.681,4.116 2.582,6.321 -6.48,0 -12.785,0.004 -19.091,-0.019 -0.2,0 -0.5,-0.236 -0.584,-0.433 -0.793,-1.863 -1.549,-3.741 -2.386,-5.786 h 12.937 c -0.727,-1.787 -1.433,-3.389 -2.024,-5.031 -0.29,-0.806 -0.704,-1.066 -1.559,-1.06 -5.638,0.04 -11.276,0.02 -16.913,0.023 -0.353,0 -0.704,0.034 -1.168,0.058 0.133,0.418 0.215,0.756 0.344,1.075 2.196,5.394 4.42,10.776 6.573,16.186 0.34,0.854 0.759,1.108 1.652,1.103 7.518,-0.036 15.034,-0.02 22.552,-0.02 2.142,0 2.15,-0.004 2.963,1.98 0.564,1.378 1.102,2.768 1.69,4.247 C 0.464,-0.042 0.232,0 0,0" /></g><g
           transform="translate(437.2979,119.7557)"
           id="g72"><path
             id="path74"
             style="fill:#181213;fill-opacity:1;fill-rule:nonzero;stroke:none"
             d="m 0,0 c -2.008,0 -3.796,-0.036 -5.582,0.017 -0.768,0.023 -1.102,-0.266 -1.385,-0.966 -3.912,-9.683 -7.859,-19.352 -11.794,-29.026 -0.125,-0.305 -0.21,-0.628 -0.352,-1.061 1.919,0 3.675,0.043 5.427,-0.019 0.814,-0.028 1.176,0.251 1.48,1.01 2.176,5.44 4.413,10.856 6.623,16.283 C -3.751,-9.263 -1.93,-4.758 0,0" /></g><g
           transform="translate(306.0196,135.7284)"
           id="g76"><path
             id="path78"
             style="fill:#e51f26;fill-opacity:1;fill-rule:nonzero;stroke:none"
             d="M 0,0 V 0.074 L -0.065,-0.007 C -0.045,-0.005 -0.022,-0.003 0,0" /></g><g
           transform="translate(306.0196,135.7284)"
           id="g80"><path
             id="path82"
             style="fill:#e51f26;fill-opacity:1;fill-rule:nonzero;stroke:none"
             d="M 0,0 V 0.074 L -0.065,-0.007 C -0.045,-0.005 -0.022,-0.003 0,0" /></g><g
           transform="translate(187.6182,183.0902)"
           id="g84"><path
             id="path86"
             style="fill:#e51f26;fill-opacity:1;fill-rule:nonzero;stroke:none"
             d="M 0,0 0.524,1.565 0.8,0.334 Z m -6.564,9.112 c -0.714,-5.709 -2.39,-11.674 -5.125,-18.235 -3.696,-8.864 -7.554,-15.727 -12.143,-21.598 -0.383,-0.488 -0.829,-0.957 -1.262,-1.41 l -0.035,-0.038 c 4.379,16.259 10.45,30.078 18.541,42.204 0.001,-0.003 0.001,-0.006 0.001,-0.009 0.029,-0.326 0.058,-0.634 0.023,-0.914 m -57.91,-12.607 c -0.246,-0.793 -0.492,-1.586 -0.746,-2.407 -1.134,0.561 -0.882,1.605 0.746,2.407 m 3.267,2.316 c -1.081,-2.372 -2.035,-4.463 -2.987,-6.553 0.49,2.297 0.81,4.67 2.987,6.553 m -0.731,5.77 c 0.708,-1.291 -0.274,-3.609 -1.444,-4.332 -0.132,0.065 -0.264,0.13 -0.396,0.195 0.613,1.379 1.227,2.758 1.84,4.137 m 1.717,-5.639 c 0.377,1.225 0.731,2.252 1.79,2.898 -1.545,-3.996 -3.104,-8.032 -4.665,-12.068 -0.087,-0.012 -0.174,-0.025 -0.26,-0.038 0,0.347 -0.1,0.732 0.015,1.035 1.041,2.725 2.265,5.392 3.12,8.173 M 4.984,21.226 c -0.262,0.64 -1.186,1.793 -2.035,1.728 -1.563,-0.13 -3.105,-0.611 -4.273,-1.015 -2.17,-0.751 -3.698,-2.397 -4.959,-3.881 -0.628,-0.739 -1.319,-1.452 -1.987,-2.142 -1.479,-1.53 -3.008,-3.111 -4.061,-5.143 -0.63,-1.215 -1.268,-2.426 -1.904,-3.636 -2.635,-4.998 -5.358,-10.167 -7.418,-15.589 -0.807,-2.12 -1.641,-4.23 -2.475,-6.339 -2.84,-7.183 -5.776,-14.609 -7.498,-22.345 -0.047,-0.211 -0.293,-0.499 -0.731,-0.859 -1.912,-1.57 -3.83,-3.131 -5.747,-4.692 -1.665,-1.353 -3.328,-2.706 -4.985,-4.065 -0.423,-0.347 -0.805,-0.734 -1.175,-1.109 -0.132,-0.135 -0.265,-0.268 -0.399,-0.401 l 0.415,1.053 c 3.602,9.136 7.325,18.584 11.134,27.815 4.294,10.411 8.233,19.762 12.963,28.766 1.251,2.38 2.939,4.122 5.163,5.324 1.718,0.929 3.101,2.374 4.111,4.292 1.529,2.907 1.126,4.794 -1.438,6.732 -0.762,0.575 -1.04,1.224 -1.243,2.084 -0.103,0.441 -0.196,0.886 -0.289,1.332 -0.517,2.482 -1.052,5.048 -3.406,6.837 l -0.142,0.108 h -1.32 l -0.111,-0.055 c -0.219,-0.109 -0.441,-0.211 -0.662,-0.313 -0.506,-0.234 -1.03,-0.475 -1.518,-0.788 -0.314,-0.203 -0.636,-0.402 -0.956,-0.601 -1.116,-0.692 -2.27,-1.407 -3.249,-2.317 -2.628,-2.445 -4.093,-5.637 -5.509,-8.723 -0.324,-0.707 -0.647,-1.412 -0.984,-2.108 -0.905,-1.866 -1.481,-3.942 -1.948,-5.741 -0.175,-0.674 -0.377,-1.344 -0.579,-2.014 -0.754,-2.499 -1.534,-5.083 -0.929,-7.906 0.055,-0.257 -0.068,-0.642 -0.186,-1.014 l -0.099,-0.327 c -2.9,-10.11 -7.42,-19.808 -11.428,-28.104 -2.436,-5.04 -5.149,-10.324 -9.171,-14.669 -2.454,-2.652 -5.201,-5.086 -7.806,-7.352 -0.739,-0.643 -2.218,-1.561 -3.84,-0.496 -1.588,1.042 -2.295,2.425 -2.102,4.108 0.313,2.732 0.106,5.376 -0.633,8.082 -0.223,0.816 -0.007,1.798 0.222,2.839 0.067,0.304 0.135,0.607 0.19,0.908 l 0.164,-0.004 c 0.014,0.177 0.028,0.354 0.041,0.531 -0.003,-0.004 -0.015,-0.038 -0.015,-0.038 0.004,0.011 0.008,0.022 0.012,0.034 h -10e-4 c 0.183,0.529 0.362,1.059 0.541,1.589 0.004,0.12 -0.002,0.241 0.007,0.36 0.104,1.287 0.243,2.676 0.425,4.236 0,0.001 0,0.002 0.001,0.004 0.176,-0.052 0.379,-0.067 0.587,0.009 0.456,0.17 0.582,0.654 0.657,0.944 0.017,0.066 0.03,0.13 0.046,0.167 0.519,0.907 0.925,1.878 1.319,2.818 l 0.047,0.115 c 0.39,0.933 0.778,1.869 1.161,2.805 l -0.449,-2.235 1.239,1.232 c 0.4,0.399 0.621,0.833 0.801,1.243 l 2.571,5.887 c 1.917,4.398 3.835,8.795 5.786,13.179 1.159,2.604 2.68,4.895 4.65,7.002 2.033,2.176 3.757,4.443 5.121,6.737 0.813,1.367 1.263,2.939 1.698,4.459 0.141,0.49 0.282,0.979 0.433,1.46 0.188,0.591 0.163,1.117 -0.07,1.523 -0.215,0.375 -0.582,0.624 -1.093,0.74 -0.417,0.094 -0.833,0.196 -1.248,0.298 -0.694,0.17 -1.389,0.34 -2.089,0.478 -0.688,0.135 -0.906,0.332 -1.009,0.911 -0.116,0.653 -0.707,1.246 -1.221,1.584 -2.196,1.438 -4.385,1.63 -6.332,0.554 -4.421,-2.44 -6.836,-5.666 -7.383,-9.86 -0.418,-3.192 -1.091,-5.865 -2.119,-8.411 -1.849,-4.573 -3.503,-9.306 -5.102,-13.883 -0.525,-1.501 -1.049,-3.003 -1.581,-4.5 -0.657,-1.852 -1.328,-3.699 -1.999,-5.545 -2.608,-7.187 -5.307,-14.619 -7.153,-22.216 -1.827,-7.519 -2.035,-14.345 -0.635,-20.87 0.509,-2.367 1.862,-3.695 4.262,-4.176 l 0.709,-0.147 c 2.153,-0.455 4.38,-0.923 6.554,0.423 1.838,1.139 3.663,2.358 5.429,3.537 l 1.901,1.266 c 0.235,0.154 0.41,0.365 0.568,0.568 2.621,3.338 5.239,6.678 7.857,10.018 -0.287,-0.545 -0.555,-1.107 -0.763,-1.692 -2.091,-5.878 -4.134,-11.813 -6.072,-17.639 -0.763,-2.297 -0.828,-4.517 -0.198,-6.788 l 0.465,-1.674 0.913,2.752 c 0.091,0.277 0.179,0.544 0.265,0.805 l 4.7,4.307 -1.426,-8.034 1.599,3.077 c 0.701,1.351 1.271,2.713 1.891,4.225 0.251,0.614 0.457,1.107 0.632,1.505 l -0.067,-0.215 3.514,-1.493 0.221,0.844 c 0.05,0.183 0.096,0.353 0.13,0.526 0.193,0.982 0.372,1.968 0.553,2.952 0.678,3.718 1.38,7.561 2.789,11.132 l 0.852,2.162 0.546,-0.678 0.274,0.017 c 2.882,0.171 5.212,1.624 7.466,3.03 0.863,0.537 1.746,1.088 2.663,1.569 -0.009,-0.039 -0.021,-0.078 -0.032,-0.117 -0.668,-2.242 -1.275,-4.64 -0.759,-7.128 0.551,-2.651 1.625,-5.907 5.07,-7.578 3.489,-1.691 7.114,-2.737 11.082,-3.197 3.41,-0.394 6.668,-0.591 9.841,-0.591 2.111,0 4.184,0.087 6.238,0.261 1.056,0.089 2.098,0.327 3.104,0.556 0.457,0.104 0.915,0.208 1.373,0.3 l 0.485,0.095 -0.144,1.169 -3.247,0.643 3.153,1.091 -2.342,0.257 c -1.187,0.13 -2.344,0.252 -3.481,0.373 -2.503,0.265 -4.868,0.516 -7.244,0.815 -4.268,0.537 -8.778,1.399 -12.836,4.048 -2.757,1.797 -3.95,4.248 -3.647,7.492 0.156,1.687 0.569,3.398 0.968,5.054 0.149,0.614 0.297,1.228 0.433,1.842 0.044,0.199 0.208,0.459 0.427,0.675 1.093,1.083 2.195,2.158 3.298,3.232 2.045,1.994 4.16,4.056 6.184,6.144 1.219,1.257 2.346,2.629 3.436,3.956 0.494,0.602 0.988,1.203 1.491,1.795 l 0.31,0.365 -0.794,0.826 -0.682,-0.286 1.845,3.256 0.979,-0.491 2.847,4.856 0.7,-0.391 c 3.281,4.751 6.339,9.512 7.689,15.503 l 0.169,0.75 c 0.02,0.041 0.039,0.079 0.056,0.115 0.103,0.207 0.176,0.356 0.221,0.536 l 0.859,3.463 c 0.823,3.304 1.673,6.721 2.447,10.097 0.493,2.151 0.308,4.376 -0.535,6.434" /></g><g
           transform="translate(306.0196,135.7284)"
           id="g88"><path
             id="path90"
             style="fill:#e51f26;fill-opacity:1;fill-rule:nonzero;stroke:none"
             d="M 0,0 C -0.022,-0.003 -0.045,-0.005 -0.065,-0.007 L 0,0.074 Z M 10.201,13.241 C 9.976,13.24 9.761,13.236 9.54,13.23 9.124,13.218 8.729,13.207 8.35,13.25 6.306,13.476 4.556,12.99 2.994,11.754 2.787,11.591 2.458,11.501 2.109,11.406 1.957,11.364 1.805,11.322 1.659,11.275 1.422,11.197 1.176,11.136 0.931,11.074 0.405,10.942 -0.137,10.807 -0.63,10.524 -1.736,9.89 -2.822,9.221 -3.908,8.552 -4.905,7.938 -5.901,7.324 -6.915,6.738 -7.216,6.563 -7.604,6.476 -8.014,6.384 -8.024,6.82 -8.036,7.256 -8.071,7.69 c -0.027,0.339 -0.025,0.698 -0.023,1.057 0.004,0.949 0.008,1.931 -0.469,2.698 -1.337,2.145 -3.634,3.348 -6.007,3.117 -3.431,-0.324 -6.873,-0.987 -10.202,-1.628 l -1.213,-0.233 c -0.481,-0.092 -0.611,-0.029 -0.642,-0.007 -0.02,0.016 -0.094,0.092 -0.132,0.41 -0.051,0.416 -0.052,0.841 -0.053,1.291 0,0.231 -10e-4,0.463 -0.009,0.694 -0.061,1.922 -0.779,3.594 -1.968,4.586 -0.994,0.83 -2.289,1.152 -3.75,0.934 -0.23,-0.034 -0.461,-0.065 -0.692,-0.094 -0.7,-0.092 -1.422,-0.186 -2.121,-0.396 -4.62,-1.391 -9.115,-3.339 -13.359,-5.791 -1.83,-1.057 -3.549,-2.35 -5.164,-3.817 0.61,0.928 1.229,1.852 1.82,2.792 0.398,0.632 1.033,2.056 0.592,2.924 h -10e-4 c -0.651,1.281 -2.068,0.723 -2.828,0.423 l -0.231,-0.09 c -0.558,-0.212 -0.772,-0.134 -1.133,0.429 -0.632,0.982 -1.273,1.551 -1.907,1.69 -1.255,0.277 -2.559,0.325 -3.82,0.372 l -0.559,0.021 c -1.169,0.045 -2.061,-0.462 -2.747,-1.559 -0.708,-1.131 -1.563,-2.264 -2.613,-3.464 -0.748,-0.854 -1.551,-1.693 -2.327,-2.505 -0.644,-0.673 -1.288,-1.346 -1.912,-2.038 -0.36,-0.399 -0.639,-0.85 -0.906,-1.286 -0.116,-0.187 -0.231,-0.375 -0.352,-0.555 l -0.251,-0.377 -3.434,-4.476 10.746,8.231 c -0.001,-0.013 -0.002,-0.027 -0.003,-0.042 -0.061,-0.855 -0.123,-1.74 -0.271,-2.582 -0.242,-1.384 -0.517,-2.762 -0.793,-4.14 -0.297,-1.481 -0.592,-2.961 -0.848,-4.448 -0.345,-2.006 -0.618,-4.14 0.152,-6.25 l 0.179,-0.489 0.788,0.27 v -3.301 l 1.077,-0.447 0.229,0.413 c 0.144,0.257 0.291,0.512 0.439,0.766 0.328,0.567 0.667,1.151 0.953,1.762 0.465,0.995 0.901,2.007 1.337,3.018 0.838,1.943 1.704,3.953 2.772,5.785 1.081,1.855 2.261,3.69 3.443,5.486 l 0.398,0.188 c 1.842,0.875 3.727,1.873 5.6,2.966 2.705,1.579 5.55,2.308 8.694,2.23 1.017,-0.026 1.637,-0.427 2.012,-1.301 0.315,-0.736 0.503,-1.363 0.572,-1.916 0.324,-2.594 1.421,-5.025 3.259,-7.225 0.507,-0.609 1.5,-1.225 2.333,-1.159 1.937,0.147 4.364,0.601 5.942,2.817 0.282,0.393 0.597,0.761 0.912,1.13 0.203,0.236 0.405,0.472 0.599,0.715 1.357,1.693 3.037,2.973 4.995,3.805 0.09,0.038 0.264,0.064 0.404,0.059 l 0.198,-0.334 c 0.616,-1.031 1.199,-2.006 1.058,-3.246 -0.183,-1.619 -0.171,-2.987 0.035,-4.183 0.182,-1.051 0.575,-1.766 1.201,-2.186 0.621,-0.415 1.423,-0.509 2.443,-0.282 1.366,0.303 3.148,0.748 4.804,1.528 1.335,0.628 2.642,1.352 3.906,2.052 1.031,0.572 2.098,1.163 3.166,1.694 0.533,0.264 1.154,0.393 1.812,0.529 0.101,0.021 0.204,0.042 0.306,0.064 0.007,-0.11 0.013,-0.219 0.019,-0.328 0.042,-0.72 0.085,-1.465 0.077,-2.189 C -1.543,1.791 -1.61,1.308 -1.682,0.796 -1.714,0.559 -1.747,0.322 -1.774,0.085 l -0.048,-0.429 0.267,-0.087 c -0.458,-0.341 -0.639,-0.961 -0.914,-2.191 -0.039,-0.18 -0.083,-0.359 -0.126,-0.538 -0.067,-0.278 -0.134,-0.555 -0.188,-0.834 -0.487,-2.47 -0.97,-4.94 -1.452,-7.411 l -0.356,-1.818 1.35,-0.498 2.408,4.835 -0.191,-2.11 1.097,1.359 c 0.45,0.557 0.898,1.098 1.338,1.632 1.914,2.317 3.721,4.504 5.027,7.101 1.596,3.175 3.299,6.364 4.946,9.449 l 0.696,1.306 c 0.441,0.826 0.461,1.691 0.055,2.374 -0.381,0.639 -1.086,1.009 -1.934,1.016" /></g><g
           transform="translate(233.4063,135.0956)"
           id="g92"><path
             id="path94"
             style="fill:#e51f26;fill-opacity:1;fill-rule:nonzero;stroke:none"
             d="m 0,0 c -0.119,-0.007 -0.238,-0.009 -0.358,-0.012 -0.297,-0.007 -0.603,-0.014 -0.918,-0.079 -0.804,-0.167 -1.604,-0.351 -2.405,-0.535 -1.437,-0.329 -2.923,-0.67 -4.39,-0.905 -4.917,-0.785 -9.999,-1.597 -15.152,-1.178 -4.814,0.391 -8.338,2.745 -10.772,7.196 -2.463,4.503 -2.272,9.761 -2.118,13.986 0.01,0.305 0.074,0.517 0.176,0.598 0.073,0.055 0.274,0.133 0.803,0.022 0.613,-0.128 1.232,-0.098 1.83,-0.068 0.247,0.012 0.494,0.024 0.74,0.024 h 0.53 l -0.004,1.239 -0.047,0.005 c 2.069,0.179 4.139,0.347 6.21,0.516 l 4.165,0.341 c 0.359,0.031 0.732,0.086 1.035,0.28 l 0.056,-0.31 4.695,1.047 0.003,-0.219 h 4.016 l 10e-4,-0.136 h 6.992 l 0.007,1.164 c 0.081,0.003 0.163,0.003 0.244,0.007 l 1.338,0.065 -1.021,0.869 c -0.008,0.006 -0.016,0.013 -0.024,0.02 l 3.879,-0.158 h -0.477 v -1.344 h 5.14 v 1.154 l 7.444,-0.303 -1.079,0.982 C 8.621,26.01 6.506,25.805 4.642,25.624 L 2.907,25.459 c -0.051,0.011 -0.102,0.02 -0.153,0.031 -0.306,0.062 -0.62,0.196 -0.952,0.337 -0.493,0.21 -1.004,0.426 -1.569,0.445 -6.026,0.201 -12.053,0.376 -18.08,0.551 -4.09,0.119 -8.179,0.238 -12.267,0.364 -0.058,0.004 -0.221,0.105 -0.319,0.166 -0.198,0.124 -0.422,0.264 -0.7,0.316 -0.37,0.07 -0.729,0.043 -1.074,0.014 -0.129,-0.011 -0.259,-0.021 -0.387,-0.024 l -0.221,-0.008 c -0.111,0.073 -0.238,0.128 -0.386,0.147 -0.305,0.04 -0.372,0.115 -0.373,0.116 -0.049,0.094 0.077,0.508 0.131,0.684 0.581,1.899 1.409,3.152 2.685,4.064 1.919,1.369 2.846,2.869 2.832,4.586 -0.024,2.96 -0.209,5.897 -0.367,8.123 -0.089,1.265 -1.057,1.995 -2.656,2.004 h -0.003 c -0.855,0 -1.363,-1.614 -1.418,-1.798 -1.625,-5.416 -3.907,-10.978 -6.978,-17.003 -0.088,-0.174 -0.49,-0.428 -0.614,-0.435 -0.661,0.145 -1.335,0.255 -2.012,0.364 -2.497,0.405 -4.855,0.788 -6.733,2.916 l -0.55,0.623 -0.333,-0.762 c -0.129,-0.293 -0.28,-0.569 -0.425,-0.831 -0.341,-0.625 -0.665,-1.214 -0.621,-1.856 0.081,-1.157 -0.364,-2.055 -0.88,-3.093 l -0.16,-0.324 c -0.538,-1.1 -0.975,-2.259 -1.396,-3.38 -0.139,-0.366 -0.277,-0.734 -0.418,-1.098 -0.103,-0.262 -0.078,-0.527 -0.05,-0.836 0.02,-0.271 0.05,-0.542 0.081,-0.814 0.058,-0.518 0.112,-1.007 0.095,-1.49 l -0.009,-0.244 c -0.036,-0.957 -0.057,-1.484 0.315,-1.853 0.38,-0.378 0.923,-0.355 2.009,-0.307 l 0.276,0.013 c 0.446,0.018 0.824,0.307 1.127,0.539 l 0.132,0.101 c 0.401,0.296 0.793,0.603 1.186,0.91 0.659,0.515 1.341,1.048 2.04,1.509 0.954,0.631 2.026,0.711 3.529,0.254 l -0.009,-0.099 c -0.026,-0.324 -0.05,-0.624 -0.09,-0.922 -0.729,-5.392 -0.789,-12.248 5.261,-17.449 l 0.122,-0.106 c 1.468,-1.263 2.864,-2.463 4.651,-3.224 l -0.349,-0.831 c 3.322,-1.768 7.105,-2.663 11.251,-2.663 0.201,0 0.403,0.002 0.607,0.006 l 0.446,0.008 c 1.763,0.033 3.587,0.068 5.425,0.664 0.928,0.301 1.946,0.344 3.024,0.388 0.833,0.034 1.695,0.069 2.533,0.235 1.943,0.382 3.887,0.891 5.766,1.384 0.808,0.211 1.615,0.423 2.425,0.625 l 0.5,0.125 -0.273,1.23 c 0.078,0.031 0.157,0.061 0.235,0.09 0.52,0.203 1.041,0.405 1.563,0.599 l 0.45,0.167 -0.344,1.319 z" /></g><g
           transform="translate(446.7325,154.2084)"
           id="g96"><path
             id="path98"
             style="fill:#e51f26;fill-opacity:1;fill-rule:nonzero;stroke:none"
             d="M 0,0 C -0.721,-0.771 -4.735,-4.055 -6.364,-4.686 -7.816,-5.248 -9.726,-5.167 -10.645,-5.113 -9.709,-0.842 -2.512,1.811 0,0 M 10.869,-8.406 C 10.59,-8.493 10.33,-8.57 10.085,-8.642 9.577,-8.791 9.129,-8.924 8.694,-9.089 7.586,-9.512 6.481,-9.947 5.376,-10.382 c -5.536,-2.182 -11.261,-4.437 -17.358,-4.908 -2.38,-0.184 -4.884,-0.215 -7.653,-0.098 -0.617,0.027 -0.771,0.153 -0.809,0.206 -0.052,0.072 -0.109,0.299 0.103,1.003 0.679,2.262 1.986,3.993 3.884,5.146 0.814,0.494 1.624,0.745 2.102,0.646 1.656,-0.327 3.18,-0.002 4.655,0.315 l 0.684,0.144 c 0.444,0.091 0.894,0.164 1.345,0.24 1.864,0.308 3.791,0.626 5.322,2.031 0.484,0.443 0.976,0.878 1.467,1.313 2.256,1.993 4.587,4.055 6.07,6.943 1.748,3.398 1.524,6.986 -0.612,9.843 -1.371,1.832 -3.061,2.096 -4.888,0.765 -1.051,-0.765 -2.092,-1.542 -3.133,-2.319 -1.194,-0.891 -2.386,-1.782 -3.593,-2.653 -5.271,-3.809 -9.723,-8.383 -13.746,-12.759 -0.625,-0.681 -0.698,-0.61 -0.948,-0.383 -0.516,0.47 -1.003,0.678 -1.49,0.636 -0.745,-0.063 -1.223,-0.675 -1.692,-1.275 l -0.305,-0.392 0.37,-0.33 c 1.658,-1.478 1.658,-1.478 0.64,-3.253 l -0.224,-0.391 c -1.461,-2.566 -2.693,-5.162 -3.663,-7.716 -0.23,-0.609 -0.345,-1.147 -0.374,-1.637 l -1.213,0.407 c -0.606,0.203 -1.131,0.255 -1.606,0.158 -0.849,-0.174 -1.694,-0.369 -2.54,-0.563 -1.394,-0.32 -2.834,-0.652 -4.263,-0.878 -4.937,-0.782 -10.04,-1.586 -15.149,-1.169 -4.796,0.397 -8.315,2.763 -10.756,7.232 -2.274,4.163 -2.292,8.8 -2.088,13.991 0.011,0.289 0.071,0.489 0.168,0.566 0.066,0.051 0.248,0.123 0.726,0.025 0.612,-0.125 1.231,-0.141 1.83,-0.156 0.256,-0.007 0.51,-0.014 0.763,-0.028 l 0.528,-0.032 0.091,1.417 -0.037,0.003 c 1.972,0.172 3.946,0.331 5.918,0.489 l 2.959,0.239 c 0.197,0.016 0.424,0.012 0.656,0.008 0.674,-0.012 1.374,-0.022 1.745,0.396 0.025,-0.043 0.058,-0.085 0.102,-0.124 l 0.204,-0.185 4.489,1.029 0.002,-0.217 h 4.07 L -41.872,3.19 h 6.901 v 1.145 l 2.243,0.001 -1.198,0.893 3.03,-0.118 -0.05,-1.243 5.147,-0.271 0.037,1.315 4.034,-0.156 c 0.402,-0.016 0.801,-0.013 1.26,-0.008 l 2.182,0.004 -1.107,0.935 c -1.995,1.687 -4.02,1.594 -6.267,1.318 L -26.596,6.89 c -0.258,0.044 -0.535,0.064 -0.821,0.031 -0.229,-0.026 -0.557,0.143 -0.881,0.307 -0.392,0.198 -0.838,0.422 -1.319,0.439 -5.651,0.19 -11.304,0.355 -16.956,0.521 -4.381,0.129 -8.763,0.258 -13.144,0.397 -0.178,0.006 -0.405,0.119 -0.646,0.238 -0.252,0.125 -0.539,0.266 -0.856,0.326 -0.378,0.074 -0.745,-0.007 -1.069,-0.078 -0.119,-0.026 -0.237,-0.052 -0.354,-0.069 l -0.066,-0.009 c -0.001,0.002 -0.003,0.004 -0.007,0.006 -0.112,0.073 -0.266,0.173 -0.475,0.197 -0.305,0.035 -0.373,0.107 -0.373,0.107 -0.046,0.096 0.077,0.493 0.135,0.683 0.603,1.939 1.405,3.154 2.683,4.062 2.321,1.651 3.271,3.901 2.821,6.687 -0.162,1.004 -0.187,2.018 -0.213,3.093 -0.016,0.685 -0.034,1.371 -0.088,2.051 -0.061,0.785 -0.184,1.58 -0.661,2.075 -0.537,0.559 -1.453,0.745 -2.093,0.836 -0.701,0.115 -1.156,-1.049 -1.241,-1.28 -0.301,-0.817 -0.587,-1.641 -0.87,-2.465 -0.435,-1.267 -0.888,-2.577 -1.4,-3.83 -1.586,-3.872 -3.288,-7.76 -4.89,-11.382 -0.058,-0.109 -0.352,-0.303 -0.433,-0.317 -0.7,0.151 -1.416,0.266 -2.13,0.38 -2.483,0.396 -4.826,0.771 -6.599,2.715 l -0.381,0.418 -0.392,-0.408 c -0.771,-0.802 -1.533,-1.837 -1.348,-3.442 0.043,-0.374 -0.108,-0.924 -0.417,-1.492 -1.358,-2.493 -2.764,-5.072 -2.178,-8.228 0.004,-0.034 -0.017,-0.137 -0.032,-0.205 -0.019,-0.09 -0.037,-0.18 -0.047,-0.27 v -10e-4 c -0.074,-0.712 -0.1,-1.72 0.542,-2.257 0.638,-0.534 1.614,-0.333 2.291,-0.137 0.371,0.107 0.67,0.343 0.933,0.551 l 0.184,0.143 c 0.368,0.275 0.733,0.556 1.096,0.839 0.659,0.51 1.341,1.037 2.033,1.506 1.051,0.712 2.149,0.644 3.533,0.252 10e-4,-0.044 0,-0.084 -0.006,-0.123 -0.038,-0.241 -0.086,-0.482 -0.133,-0.722 -0.095,-0.472 -0.192,-0.959 -0.219,-1.461 -0.313,-5.726 0.127,-11.638 5.417,-16.096 1.196,-1.009 2.508,-2.113 4.042,-2.965 l -1.742,0.56 2.118,-1.754 c 0.766,-0.634 1.485,-1.022 2.204,-1.184 l 1.284,-0.297 c 1.946,-0.453 3.956,-0.921 5.977,-1.153 0.825,-0.094 1.658,-0.142 2.497,-0.142 1.912,0 3.851,0.247 5.789,0.736 0.925,0.233 1.893,0.283 2.918,0.334 0.884,0.045 1.798,0.091 2.689,0.267 1.953,0.384 3.906,0.896 5.796,1.392 0.805,0.211 1.611,0.422 2.417,0.624 l 0.503,0.126 -0.299,1.327 c 0.621,0.256 1.237,0.526 1.845,0.81 l 1.153,0.538 c -0.028,-0.588 0.078,-1.101 0.342,-1.534 0.509,-0.829 1.517,-1.315 3.08,-1.485 1.543,-0.168 3.071,-0.251 4.58,-0.251 4.75,0 9.327,0.827 13.652,2.473 4.951,1.885 9.411,4.776 13.724,7.572 1.388,0.9 2.777,1.799 4.178,2.666 0.19,0.115 0.255,0.288 0.313,0.441 0.025,0.068 0.061,0.164 0.12,0.297 l 0.46,1.061 z" /></g><g
           transform="translate(252.751,156.2933)"
           id="g100"><path
             id="path102"
             style="fill:#e51f26;fill-opacity:1;fill-rule:nonzero;stroke:none"
             d="M 0,0 0.645,-0.333 0.766,0.383 C 0.789,0.522 0.818,0.649 0.846,0.768 0.91,1.05 0.971,1.317 0.942,1.61 0.852,2.576 1.291,3.219 2.18,3.422 3.648,3.758 4.763,4.584 5.84,5.383 6.285,5.714 6.73,6.045 7.202,6.338 7.774,6.694 8.126,7.194 8.191,7.745 8.25,8.231 8.075,8.71 7.7,9.092 c -0.969,0.986 -0.757,1.773 0.046,3.061 0.167,0.269 0.271,0.551 0.37,0.825 0.037,0.102 0.074,0.204 0.114,0.303 0.339,0.83 0.179,1.381 -0.015,1.696 -0.188,0.304 -0.585,0.68 -1.413,0.745 L 6.661,15.733 C 5.262,15.844 3.813,15.958 2.404,15.749 -0.54,15.311 -4.021,14.22 -4.795,9.637 -5.574,5.017 -4.141,2.135 0,0" /></g><g
           transform="translate(117.8077,153.1034)"
           id="g104"><path
             id="path106"
             style="fill:#e51f26;fill-opacity:1;fill-rule:nonzero;stroke:none"
             d="m 0,0 c -0.005,-0.012 -0.009,-0.023 -0.013,-0.035 0,0 0.013,0.035 0.016,0.039 -0.014,-0.177 -0.027,-0.355 -0.041,-0.531 L 0.513,-0.54 0.518,-0.005 0.517,0.597 C 0.515,0.929 0.525,1.259 0.539,1.589 0.36,1.059 0.182,0.528 -0.001,0 Z" /></g><g
           transform="translate(344.8858,148.4017)"
           id="g108"><path
             id="path110"
             style="fill:#e51f26;fill-opacity:1;fill-rule:nonzero;stroke:none"
             d="m 0,0 c -0.889,-0.764 -1.772,-1.536 -2.657,-2.307 -2.671,-2.33 -5.432,-4.739 -8.301,-6.888 -1.21,-0.906 -2.674,-1.464 -4.224,-2.054 -0.663,-0.251 -1.324,-0.503 -1.964,-0.783 -0.019,-0.009 -0.048,-0.015 -0.085,-0.02 0.011,0.029 0.023,0.057 0.034,0.085 0.242,0.604 0.468,1.176 0.62,1.77 -0.616,-0.852 -1.239,-1.714 -1.88,-2.6 -0.661,2.8 2.774,7.287 6.098,8.431 -0.684,-0.946 -1.365,-1.886 -2.046,-2.829 0.752,0.276 1.417,0.804 1.752,1.903 l 0.049,0.162 0.19,-0.246 1.484,0.853 c 0.833,0.476 1.097,0.963 1.919,1.455 0.429,0.255 1.436,0.941 1.858,1.208 0.706,0.447 1.42,0.48 2.161,0.868 0.193,0.102 0.504,0.111 0.833,0.12 0.201,0.005 0.403,0.011 0.596,0.036 0.053,0.006 0.038,0.005 0.013,0.003 0.368,0.034 1.017,0.44 1.397,0.598 C -1.3,0.119 -0.031,0.702 0.805,1.098 0.642,0.891 0.187,0.159 0,0 m -22.036,-12.797 c 0.773,3.601 3.496,5.816 6.098,8.431 -2.006,-2.774 -3.966,-5.483 -6.098,-8.431 m 0.773,6.415 -0.063,-0.133 c -0.076,-0.156 -0.152,-0.311 -0.227,-0.466 l -0.237,0.266 z M 16.016,9.971 c 0.084,0.258 0.166,0.517 0.234,0.779 0.241,0.92 -0.002,1.466 -0.249,1.763 -0.245,0.293 -0.742,0.631 -1.658,0.556 -0.139,-0.011 -0.278,-0.027 -0.416,-0.045 0.679,1.343 0.547,2.72 -0.387,4.331 -1.571,2.713 -3.538,3.462 -6.189,2.36 C 7.178,19.643 7.006,19.568 6.836,19.493 5.591,18.948 4.846,18.667 4.039,19.275 L 3.601,19.603 2.229,17.65 C 1.55,16.681 0.895,15.747 0.234,14.816 -1.64,12.172 -3.607,10.128 -5.782,8.568 -7.733,7.17 -9.64,5.654 -11.483,4.188 -12.134,3.67 -12.785,3.153 -13.519,2.576 -13.886,2.291 -14.342,1.937 -14.456,1.432 -14.57,0.924 -14.848,0.823 -15.522,0.625 c -0.1,-0.03 -0.203,-0.055 -0.306,-0.081 -0.666,-0.167 -1.766,-0.443 -1.712,-1.835 -0.064,-0.054 -0.158,-0.124 -0.217,-0.167 l -1.665,-1.286 c -1.002,-0.774 -2.005,-1.548 -2.993,-2.339 -0.24,-0.19 -0.321,-0.456 -0.415,-0.763 -0.043,-0.138 -0.094,-0.305 -0.17,-0.503 l -0.058,-0.145 c -0.287,-0.109 -0.595,-0.241 -0.823,-0.506 -0.548,-0.634 -1.108,-1.321 -1.428,-2.114 -0.545,-1.356 -0.904,-2.571 -1.095,-3.715 -0.216,-1.287 0.548,-2.447 1.871,-2.773 1.761,-0.434 3.55,-0.875 5.336,-0.875 1.736,0 3.467,0.418 5.158,1.667 0.684,0.506 1.438,0.909 2.236,1.334 0.407,0.217 0.813,0.434 1.209,0.664 0.27,0.157 0.549,0.305 0.827,0.453 0.703,0.374 1.49,0.698 2.048,1.297 4.367,4.68 7.325,8.342 10.191,11.62 C 2.169,-0.27 2.051,-2.548 1.711,-3.355 0.959,-5.146 1.182,-6.85 2.378,-8.419 c 2.937,-3.862 7.074,-4.821 11.784,-5.598 l 0.775,-0.129 -0.171,0.768 c -0.06,0.261 -0.148,0.525 -0.233,0.776 -0.087,0.259 -0.218,0.651 -0.197,0.751 0.681,1.22 -0.03,1.915 -0.5,2.375 -0.235,0.231 -0.46,0.472 -0.686,0.712 -0.298,0.321 -0.598,0.641 -0.92,0.939 -0.917,0.847 -1.289,1.902 -1.138,3.222 0.346,3.035 1.27,5.474 2.827,7.457 0.498,0.635 0.937,1.318 1.362,1.978 l 0.444,0.683 c 0.447,0.677 0.932,1.707 -0.008,2.817 -0.032,0.063 -0.051,0.306 0.012,0.625 0.068,0.343 0.178,0.678 0.287,1.014" /></g><g
           transform="translate(332.5264,144.0355)"
           id="g112"><path
             id="path114"
             style="fill:#e51f26;fill-opacity:1;fill-rule:nonzero;stroke:none"
             d="m 0,0 c -3.323,-1.144 -6.759,-5.631 -6.098,-8.431 0.641,0.887 1.264,1.748 1.88,2.6 0.735,1.014 1.455,2.012 2.172,3.002 C -1.364,-1.886 -0.684,-0.946 0,0" /></g><g
           transform="translate(164.6944,51.0404)"
           id="g116"><path
             id="path118"
             style="fill:#201b1d;fill-opacity:1;fill-rule:nonzero;stroke:none"
             d="m 0,0 v 0.024 c 0,2.374 1.775,4.341 4.246,4.341 1.523,0 2.435,-0.539 3.274,-1.331 L 6.872,2.338 C 6.165,3.01 5.373,3.49 4.233,3.49 2.375,3.49 0.983,1.979 0.983,0.048 V 0.024 c 0,-1.943 1.404,-3.466 3.25,-3.466 1.152,0 1.908,0.443 2.711,1.211 L 7.568,-2.843 C 6.692,-3.73 5.733,-4.318 4.21,-4.318 1.787,-4.318 0,-2.411 0,0" /></g><g
           transform="translate(181.0479,49.9491)"
           id="g120"><path
             id="path122"
             style="fill:#201b1d;fill-opacity:1;fill-rule:nonzero;stroke:none"
             d="M 0,0 -1.907,4.27 -3.826,0 Z m -2.339,5.373 h 0.887 l 3.826,-8.456 h -1.02 l -0.983,2.219 h -4.569 l -0.995,-2.219 h -0.972 z" /></g><g
           transform="translate(187.9014,54.3866)"
           id="g124"><path
             id="path126"
             style="fill:#201b1d;fill-opacity:1;fill-rule:nonzero;stroke:none"
             d="M 0,0 H -2.818 V 0.875 H 3.777 V 0 H 0.959 V -7.52 H 0 Z" /></g><g
           transform="translate(199.504,49.9491)"
           id="g128"><path
             id="path130"
             style="fill:#201b1d;fill-opacity:1;fill-rule:nonzero;stroke:none"
             d="M 0,0 -1.907,4.27 -3.826,0 Z m -2.339,5.373 h 0.888 l 3.825,-8.456 h -1.02 l -0.983,2.219 h -4.569 l -0.995,-2.219 h -0.972 z" /></g><g
           transform="translate(205.2178,55.2621)"
           id="g132"><path
             id="path134"
             style="fill:#201b1d;fill-opacity:1;fill-rule:nonzero;stroke:none"
             d="M 0,0 H 0.947 V -7.52 H 5.673 V -8.396 L 0,-8.396 Z" /></g><g
           transform="translate(221.0538,51.0404)"
           id="g136"><path
             id="path138"
             style="fill:#201b1d;fill-opacity:1;fill-rule:nonzero;stroke:none"
             d="M 0,0 V 0.024 C 0,1.931 -1.392,3.49 -3.311,3.49 -5.229,3.49 -6.597,1.955 -6.597,0.048 V 0.024 c 0,-1.907 1.392,-3.466 3.311,-3.466 C -1.367,-3.442 0,-1.907 0,0 m -7.58,0 v 0.024 c 0,2.314 1.739,4.341 4.294,4.341 2.555,0 4.269,-2.002 4.269,-4.317 V 0.024 c 0,-2.315 -1.739,-4.342 -4.294,-4.342 -2.554,0 -4.269,2.003 -4.269,4.318" /></g><g
           transform="translate(225.3536,51.0404)"
           id="g140"><path
             id="path142"
             style="fill:#201b1d;fill-opacity:1;fill-rule:nonzero;stroke:none"
             d="m 0,0 v 0.024 c 0,2.303 1.691,4.341 4.21,4.341 1.415,0 2.291,-0.407 3.13,-1.115 L 6.729,2.53 C 6.081,3.094 5.361,3.49 4.174,3.49 2.314,3.49 0.983,1.919 0.983,0.048 V 0.024 c 0,-2.003 1.284,-3.49 3.323,-3.49 0.96,0 1.846,0.372 2.423,0.84 V -0.54 H 4.174 V 0.312 H 7.64 V -3.035 C 6.86,-3.73 5.685,-4.318 4.27,-4.318 1.631,-4.318 0,-2.399 0,0" /></g><path
           id="path144"
           style="fill:#201b1d;fill-opacity:1;fill-rule:nonzero;stroke:none"
           d="m 236.55,48.126 h 1.104 v -1.259 h -1.104 z" /><g
           transform="translate(241.1221,50.3807)"
           id="g146"><path
             id="path148"
             style="fill:#201b1d;fill-opacity:1;fill-rule:nonzero;stroke:none"
             d="M 0,0 V 4.881 H 0.947 V 0.06 c 0,-1.811 0.972,-2.831 2.567,-2.831 1.547,0 2.53,0.936 2.53,2.771 V 4.881 H 6.992 V 0.072 C 6.992,-2.375 5.589,-3.646 3.49,-3.646 1.415,-3.646 0,-2.375 0,0" /></g><g
           transform="translate(252.0421,55.2621)"
           id="g150"><path
             id="path152"
             style="fill:#201b1d;fill-opacity:1;fill-rule:nonzero;stroke:none"
             d="M 0,0 H 0.947 V -7.52 H 5.673 V -8.396 L 0,-8.396 Z" /></g><g
           transform="translate(262.169,54.3866)"
           id="g154"><path
             id="path156"
             style="fill:#201b1d;fill-opacity:1;fill-rule:nonzero;stroke:none"
             d="M 0,0 H -2.818 V 0.875 H 3.777 V 0 H 0.959 V -7.52 H 0 Z" /></g><path
           id="path158"
           style="fill:#201b1d;fill-opacity:1;fill-rule:nonzero;stroke:none"
           d="m 269.489,55.262 h 0.947 v -8.396 h -0.947 z" /><g
           transform="translate(274.5772,55.2621)"
           id="g160"><path
             id="path162"
             style="fill:#201b1d;fill-opacity:1;fill-rule:nonzero;stroke:none"
             d="M 0,0 H 0.959 L 4.018,-4.582 7.076,0 H 8.035 V -8.396 H 7.088 v 6.801 L 4.029,-6.093 H 3.981 L 0.923,-1.607 V -8.396 H 0 Z" /></g><g
           transform="translate(292.1192,49.9491)"
           id="g164"><path
             id="path166"
             style="fill:#201b1d;fill-opacity:1;fill-rule:nonzero;stroke:none"
             d="M 0,0 -1.907,4.27 -3.826,0 Z m -2.339,5.373 h 0.888 l 3.825,-8.456 h -1.02 l -0.983,2.219 h -4.569 l -0.995,-2.219 h -0.972 z" /></g><g
           transform="translate(298.9717,54.3866)"
           id="g168"><path
             id="path170"
             style="fill:#201b1d;fill-opacity:1;fill-rule:nonzero;stroke:none"
             d="M 0,0 H -2.818 V 0.875 H 3.777 V 0 H 0.959 V -7.52 H 0 Z" /></g><g
           transform="translate(306.209,55.2621)"
           id="g172"><path
             id="path174"
             style="fill:#201b1d;fill-opacity:1;fill-rule:nonzero;stroke:none"
             d="M 0,0 H 6.068 V -0.864 H 0.947 V -3.73 H 5.529 V -4.594 H 0.947 V -7.532 H 6.129 V -8.396 H 0 Z" /></g><path
           id="path176"
           style="fill:#201b1d;fill-opacity:1;fill-rule:nonzero;stroke:none"
           d="m 315.522,50.956 h 3.334 v -0.972 h -3.334 z" /><g
           transform="translate(322.5049,55.2621)"
           id="g178"><path
             id="path180"
             style="fill:#201b1d;fill-opacity:1;fill-rule:nonzero;stroke:none"
             d="M 0,0 H 6.032 V -0.875 H 0.947 V -3.874 H 5.493 V -4.737 H 0.947 V -8.396 H 0 Z" /></g><path
           id="path182"
           style="fill:#201b1d;fill-opacity:1;fill-rule:nonzero;stroke:none"
           d="m 332.141,55.262 h 0.947 v -8.396 h -0.947 z" /><g
           transform="translate(336.6768,48.0897)"
           id="g184"><path
             id="path186"
             style="fill:#201b1d;fill-opacity:1;fill-rule:nonzero;stroke:none"
             d="m 0,0 0.588,0.696 c 0.875,-0.792 1.715,-1.188 2.878,-1.188 1.128,0 1.871,0.6 1.871,1.428 v 0.023 c 0,0.78 -0.42,1.224 -2.183,1.596 -1.93,0.42 -2.818,1.043 -2.818,2.423 v 0.023 c 0,1.32 1.163,2.291 2.758,2.291 1.223,0 2.099,-0.348 2.951,-1.031 L 5.493,5.529 C 4.713,6.165 3.934,6.44 3.07,6.44 1.979,6.44 1.283,5.841 1.283,5.085 V 5.062 C 1.283,4.27 1.715,3.826 3.562,3.43 5.433,3.022 6.297,2.339 6.297,1.056 V 1.032 c 0,-1.44 -1.2,-2.375 -2.867,-2.375 C 2.099,-1.343 1.008,-0.899 0,0" /></g><g
           transform="translate(346.5889,55.2621)"
           id="g188"><path
             id="path190"
             style="fill:#201b1d;fill-opacity:1;fill-rule:nonzero;stroke:none"
             d="M 0,0 H 0.947 V -3.73 H 5.793 V 0 H 6.74 V -8.396 H 5.793 v 3.778 H 0.947 V -8.396 H 0 Z" /></g><path
           id="path192"
           style="fill:#201b1d;fill-opacity:1;fill-rule:nonzero;stroke:none"
           d="m 357.473,55.262 h 0.947 v -8.396 h -0.947 z" /><g
           transform="translate(362.5606,55.2621)"
           id="g194"><path
             id="path196"
             style="fill:#201b1d;fill-opacity:1;fill-rule:nonzero;stroke:none"
             d="M 0,0 H 0.888 L 6.177,-6.729 V 0 H 7.1 V -8.396 H 6.345 L 0.924,-1.511 V -8.396 H 0 Z" /></g><g
           transform="translate(373.3487,51.0404)"
           id="g198"><path
             id="path200"
             style="fill:#201b1d;fill-opacity:1;fill-rule:nonzero;stroke:none"
             d="m 0,0 v 0.024 c 0,2.303 1.691,4.341 4.21,4.341 1.415,0 2.291,-0.407 3.13,-1.115 L 6.729,2.53 C 6.081,3.094 5.361,3.49 4.174,3.49 2.314,3.49 0.983,1.919 0.983,0.048 V 0.024 c 0,-2.003 1.284,-3.49 3.323,-3.49 0.96,0 1.846,0.372 2.423,0.84 V -0.54 H 4.174 V 0.312 H 7.64 V -3.035 C 6.86,-3.73 5.685,-4.318 4.27,-4.318 1.631,-4.318 0,-2.399 0,0" /></g><path
           id="path202"
           style="fill:#201b1d;fill-opacity:1;fill-rule:nonzero;stroke:none"
           d="m 384.545,48.126 h 1.104 v -1.259 h -1.104 z" /><g
           transform="translate(389.4288,55.2621)"
           id="g204"><path
             id="path206"
             style="fill:#201b1d;fill-opacity:1;fill-rule:nonzero;stroke:none"
             d="M 0,0 H 0.888 L 6.177,-6.729 V 0 H 7.1 V -8.396 H 6.345 L 0.923,-1.511 V -8.396 H 0 Z" /></g><g
           transform="translate(400.5889,55.2621)"
           id="g208"><path
             id="path210"
             style="fill:#201b1d;fill-opacity:1;fill-rule:nonzero;stroke:none"
             d="M 0,0 H 6.068 V -0.864 H 0.947 V -3.73 H 5.528 V -4.594 H 0.947 V -7.532 H 6.129 V -8.396 H 0 Z" /></g><g
           transform="translate(412.5274,54.3866)"
           id="g212"><path
             id="path214"
             style="fill:#201b1d;fill-opacity:1;fill-rule:nonzero;stroke:none"
             d="M 0,0 H -2.818 V 0.875 H 3.777 V 0 H 0.959 V -7.52 H 0 Z" /></g><g
           transform="translate(101.1475,50.7914)"
           id="g216"><path
             id="path218"
             style="fill:#181213;fill-opacity:1;fill-rule:nonzero;stroke:none"
             d="M 0,0 C 12.982,-0.316 31.846,-0.516 52.843,-0.516 V 0.516 C 31.846,0.516 12.982,0.316 0,0" /></g><g
           transform="translate(479.8526,50.7914)"
           id="g220"><path
             id="path222"
             style="fill:#181213;fill-opacity:1;fill-rule:nonzero;stroke:none"
             d="m 0,0 c -12.982,0.316 -31.846,0.516 -52.843,0.516 v -1.032 c 20.997,0 39.861,0.2 52.843,0.516" /></g></g></g></g></svg>